{"glyphs":{"0":{"ha":769,"x_min":40,"x_max":729,"o":"m 729 375 q 718 255 729 311 q 677 142 705 189 q 385 -18 583 -18 q 92 142 186 -18 q 51 255 64 189 q 40 375 40 311 l 40 675 q 79 864 40 788 q 385 1046 171 1046 q 690 864 598 1046 q 729 675 729 788 l 729 375 m 626 652 q 616 753 626 702 q 582 847 604 812 q 385 953 515 953 q 187 847 254 953 q 153 753 165 812 q 143 652 143 702 l 143 390 q 151 284 143 332 q 182 184 160 220 q 385 75 248 75 q 587 184 521 75 q 618 284 609 220 q 626 390 626 332 l 626 652 z "},"1":{"ha":769,"x_min":187,"x_max":467,"o":"m 363 0 l 363 935 l 187 935 l 187 1028 l 467 1028 l 467 0 l 363 0 z "},"2":{"ha":769,"x_min":55,"x_max":713,"o":"m 713 733 q 654 552 713 639 q 594 477 631 517 q 524 408 569 450 l 194 93 l 708 93 l 708 0 l 55 0 l 55 93 l 480 502 q 543 571 519 540 q 610 734 610 655 q 544 889 610 825 q 389 953 479 953 q 222 876 281 953 q 166 696 166 806 l 63 696 l 63 699 q 111 894 63 813 q 263 1021 162 982 q 394 1046 326 1046 q 688 850 606 1046 q 713 733 713 791 z "},"3":{"ha":769,"x_min":47,"x_max":703,"o":"m 703 317 q 611 80 703 176 q 378 -18 518 -18 q 256 5 315 -18 q 101 130 155 44 q 47 322 51 209 l 150 322 q 159 251 153 277 q 186 184 168 215 q 378 75 252 75 q 541 144 479 75 q 600 311 600 210 q 549 450 600 389 q 425 530 500 511 q 365 538 400 536 l 305 541 l 305 631 l 340 629 q 474 669 421 629 q 532 790 532 712 q 487 907 532 861 q 372 953 442 953 q 257 896 300 953 q 218 771 218 845 l 115 771 q 187 965 118 888 q 374 1046 259 1046 q 561 970 486 1046 q 634 782 634 894 q 606 672 634 720 q 529 589 582 631 q 703 317 703 497 z "},"4":{"ha":769,"x_min":19,"x_max":733,"o":"m 640 187 l 640 0 l 537 0 l 537 187 l 19 187 l 19 281 l 517 1028 l 640 1028 l 640 281 l 733 281 l 733 187 l 640 187 m 537 886 l 534 886 l 137 281 l 537 281 l 537 886 z "},"5":{"ha":769,"x_min":36,"x_max":736,"o":"m 736 340 q 635 88 736 193 q 387 -18 534 -18 q 268 4 328 -18 q 106 128 165 41 q 36 323 52 208 l 139 323 q 215 149 150 218 q 387 75 285 75 q 564 156 492 75 q 633 340 633 234 q 566 526 633 448 q 389 608 496 608 q 175 492 264 608 l 94 521 l 187 1028 l 650 1028 l 650 935 l 269 935 l 218 652 q 393 700 307 700 q 639 593 540 700 q 736 340 736 488 z "},"6":{"ha":769,"x_min":33,"x_max":736,"o":"m 736 342 q 636 87 736 191 q 385 -18 536 -18 q 130 87 229 -18 q 33 347 33 191 q 71 507 33 426 q 111 578 86 539 q 157 648 125 602 l 412 1026 l 529 1026 l 292 677 l 294 676 q 390 699 341 699 q 638 594 538 699 q 736 342 736 491 m 633 340 q 564 526 633 449 q 385 606 492 606 q 205 525 276 606 q 136 338 136 447 q 206 154 136 230 q 385 75 278 75 q 565 154 494 75 q 633 340 633 230 z "},"7":{"ha":769,"x_min":87,"x_max":682,"o":"m 261 0 l 153 0 l 576 935 l 87 935 l 87 1028 l 682 1028 l 682 935 l 261 0 z "},"8":{"ha":769,"x_min":56,"x_max":712,"o":"m 712 298 q 614 74 712 167 q 385 -18 518 -18 q 155 73 252 -18 q 56 298 56 166 q 104 463 56 387 q 233 574 153 542 q 112 779 112 652 q 191 970 112 893 q 384 1046 270 1046 q 578 968 498 1046 q 656 775 656 890 q 534 574 656 641 q 712 298 712 489 m 553 783 q 505 903 553 852 q 387 953 456 953 q 264 904 315 953 q 214 783 214 855 q 267 666 214 715 q 385 616 317 616 q 504 665 454 616 q 553 783 553 714 m 609 298 q 543 456 609 392 q 382 521 476 521 q 227 456 294 521 q 159 302 159 391 q 224 140 159 205 q 387 75 289 75 q 545 141 479 75 q 609 298 609 207 z "},"9":{"ha":769,"x_min":33,"x_max":736,"o":"m 736 679 q 698 519 736 600 q 659 448 683 487 q 612 378 644 424 l 357 0 l 240 0 l 477 349 l 475 350 q 379 328 433 328 q 131 432 231 328 q 33 685 33 535 q 133 939 33 836 q 385 1044 234 1044 q 639 939 540 1044 q 736 679 736 836 m 633 689 q 563 873 633 796 q 385 951 491 951 q 205 872 275 951 q 136 686 136 796 q 205 500 136 577 q 385 421 277 421 q 565 502 493 421 q 633 689 633 579 z "}," ":{"ha":385,"x_min":0,"x_max":0,"o":""},"!":{"ha":410,"x_min":154,"x_max":257,"o":"m 154 268 l 154 1028 l 257 1028 l 257 268 l 154 268 m 154 0 l 154 175 l 257 175 l 257 0 l 154 0 z "},"\"":{"ha":429,"x_min":50,"x_max":378,"o":"m 362 616 l 283 616 l 266 1028 l 378 1028 l 362 616 m 145 616 l 66 616 l 50 1028 l 162 1028 l 145 616 z "},"#":{"ha":769,"x_min":45,"x_max":723,"o":"m 594 648 l 557 379 l 684 379 l 684 286 l 544 286 l 504 0 l 408 0 l 448 286 l 276 286 l 236 0 l 140 0 l 180 286 l 45 286 l 45 379 l 194 379 l 230 647 l 81 647 l 81 742 l 244 742 l 284 1028 l 380 1028 l 340 742 l 512 742 l 553 1028 l 648 1028 l 608 742 l 723 742 l 723 648 l 594 648 m 328 648 l 290 379 l 460 379 l 498 648 l 328 648 z "},"$":{"ha":769,"x_min":97,"x_max":673,"o":"m 673 310 q 608 129 673 205 q 437 40 541 51 l 437 -97 l 334 -97 l 334 40 q 168 125 237 51 q 97 297 97 200 l 97 317 l 200 317 q 390 125 200 125 q 570 310 570 125 q 513 444 570 395 q 376 504 469 481 q 277 536 317 519 q 198 584 229 557 q 126 758 127 646 l 126 764 q 334 1010 124 972 l 334 1126 l 437 1126 l 437 1014 q 664 755 654 984 l 561 755 q 387 924 561 924 q 229 764 229 924 q 283 645 229 685 q 341 615 306 628 q 410 595 366 606 q 597 502 533 562 q 673 310 673 429 z "},"%":{"ha":1076,"x_min":29,"x_max":1046,"o":"m 532 794 q 458 618 532 692 q 281 546 384 546 q 103 618 177 546 q 29 794 29 692 q 103 970 29 897 q 281 1043 177 1043 q 458 970 384 1043 q 532 794 532 897 m 286 0 l 192 0 l 781 1028 l 875 1028 l 286 0 m 1046 231 q 972 55 1046 127 q 794 -18 898 -18 q 617 55 691 -18 q 543 231 543 127 q 617 406 543 334 q 794 479 691 479 q 972 406 898 479 q 1046 231 1046 334 m 448 794 q 400 916 448 865 q 281 965 351 965 q 161 916 210 965 q 113 794 113 865 q 161 673 113 724 q 281 624 210 624 q 400 673 351 624 q 448 794 448 724 m 962 231 q 914 351 962 302 q 794 401 865 401 q 675 351 724 401 q 627 231 627 302 q 675 110 627 159 q 794 60 724 60 q 914 110 865 60 q 962 231 962 159 z "},"&":{"ha":1051,"x_min":77,"x_max":1022,"o":"m 948 -17 l 713 212 q 591 50 657 104 q 401 -17 509 -17 q 174 74 269 -17 q 77 297 77 166 q 147 486 77 405 q 315 603 206 554 q 234 699 258 658 q 199 818 199 755 q 275 982 199 916 q 447 1046 348 1046 q 618 976 546 1046 q 692 806 692 905 q 631 659 692 724 q 492 572 576 601 l 687 380 l 837 669 l 952 669 l 762 307 l 1022 54 l 948 -17 m 590 815 q 546 912 590 874 q 446 949 505 949 q 347 913 389 949 q 302 819 302 875 q 342 722 302 772 q 380 680 357 702 q 419 644 395 665 q 479 670 457 659 q 534 703 513 686 q 590 815 590 747 m 389 529 q 245 441 302 499 q 180 292 180 374 q 243 143 180 206 q 393 81 307 81 q 543 146 478 81 q 594 212 569 172 q 635 286 612 241 l 389 529 z "},"'":{"ha":487,"x_min":130,"x_max":355,"o":"m 233 758 l 130 758 l 252 1028 l 355 1028 l 233 758 z "},"(":{"ha":512,"x_min":65,"x_max":493,"o":"m 493 -285 q 319 -180 408 -257 q 65 383 65 43 q 319 947 65 724 q 493 1051 408 1023 l 493 947 q 259 707 349 861 q 168 383 168 550 q 258 58 168 214 q 493 -184 347 -96 l 493 -285 z "},")":{"ha":512,"x_min":19,"x_max":447,"o":"m 447 383 q 193 -180 447 43 q 19 -285 104 -257 l 19 -184 q 254 58 165 -96 q 344 383 344 214 q 253 707 344 550 q 19 947 163 861 l 19 1051 q 193 947 104 1023 q 447 383 447 724 z "},"*":{"ha":590,"x_min":80,"x_max":509,"o":"m 357 794 l 451 667 l 386 619 l 292 750 l 201 621 l 136 668 l 231 796 l 80 843 l 105 921 l 256 868 l 255 1028 l 336 1028 l 333 867 l 484 918 l 509 842 l 357 794 z "},"+":{"ha":842,"x_min":71,"x_max":770,"o":"m 468 304 l 468 0 l 373 0 l 373 304 l 71 304 l 71 399 l 373 399 l 373 703 l 468 703 l 468 399 l 770 399 l 770 304 l 468 304 z "},",":{"ha":385,"x_min":19,"x_max":244,"o":"m 122 -93 l 19 -93 l 141 175 l 244 175 l 122 -93 z "},"-":{"ha":460,"x_min":41,"x_max":419,"o":"m 41 345 l 41 437 l 419 437 l 419 345 l 41 345 z "},".":{"ha":385,"x_min":141,"x_max":244,"o":"m 141 0 l 141 175 l 244 175 l 244 0 l 141 0 z "},"/":{"ha":606,"x_min":61,"x_max":559,"o":"m 167 -139 l 61 -139 l 450 1028 l 559 1028 l 167 -139 z "},":":{"ha":385,"x_min":141,"x_max":244,"o":"m 141 586 l 141 761 l 244 761 l 244 586 l 141 586 m 141 0 l 141 175 l 244 175 l 244 0 l 141 0 z "},";":{"ha":385,"x_min":19,"x_max":244,"o":"m 141 586 l 141 761 l 244 761 l 244 586 l 141 586 m 122 -93 l 19 -93 l 141 175 l 244 175 l 122 -93 z "},"<":{"ha":842,"x_min":64,"x_max":769,"o":"m 64 309 l 64 395 l 769 714 l 769 619 l 179 351 l 769 83 l 769 -11 l 64 309 z "},"=":{"ha":842,"x_min":71,"x_max":770,"o":"m 71 444 l 71 539 l 770 539 l 770 444 l 71 444 m 71 164 l 71 258 l 770 258 l 770 164 l 71 164 z "},">":{"ha":842,"x_min":72,"x_max":777,"o":"m 72 -11 l 72 83 l 662 351 l 72 619 l 72 714 l 777 395 l 777 309 l 72 -11 z "},"?":{"ha":821,"x_min":89,"x_max":730,"o":"m 730 736 q 691 602 730 663 q 650 549 675 576 l 627 526 l 556 455 q 513 403 530 427 q 468 268 472 341 l 366 268 l 366 273 q 406 427 366 357 q 448 484 423 455 q 496 534 467 506 l 545 581 q 587 629 571 608 q 628 741 628 683 q 562 888 628 827 q 411 947 498 947 q 224 846 292 947 q 196 779 203 814 q 192 705 192 753 l 89 705 l 89 732 q 187 954 89 862 q 415 1044 284 1044 q 639 957 549 1044 q 730 736 730 869 m 366 0 l 366 175 l 468 175 l 468 0 l 366 0 z "},"@":{"ha":1204,"x_min":90,"x_max":1115,"o":"m 1115 589 q 1097 454 1115 516 q 1016 296 1072 361 q 864 216 949 216 q 753 328 758 216 l 750 328 q 558 216 682 216 q 397 293 458 216 q 342 467 342 363 q 414 682 342 589 q 612 781 493 781 q 785 657 747 781 l 787 657 l 807 761 l 890 761 l 824 392 q 819 351 819 368 q 867 294 819 294 q 970 361 925 294 q 1021 482 1004 412 q 1032 587 1032 538 q 917 868 1032 764 q 628 968 806 968 q 302 839 431 968 q 174 513 174 709 q 304 180 174 303 q 643 60 431 60 q 974 129 821 60 l 994 58 q 643 -18 831 -18 q 340 53 469 -18 q 135 281 201 130 q 90 503 90 382 q 245 894 90 741 q 639 1046 399 1046 q 979 922 848 1046 q 1115 589 1115 796 m 757 547 q 721 656 757 612 q 619 703 682 703 q 475 628 531 703 q 425 469 425 561 q 461 346 425 393 q 575 294 501 294 q 714 380 663 294 q 757 547 757 452 z "},"A":{"ha":1027,"x_min":16,"x_max":1012,"o":"m 900 0 l 751 346 l 273 346 l 123 0 l 16 0 l 455 1028 l 570 1028 l 1012 0 l 900 0 m 513 911 l 312 439 l 711 439 l 513 911 z "},"B":{"ha":797,"x_min":102,"x_max":755,"o":"m 755 294 q 637 57 755 132 q 516 9 581 22 q 386 0 468 0 l 102 0 l 102 1028 l 361 1028 q 547 992 471 1028 q 676 860 638 950 q 697 754 697 810 q 667 636 697 687 q 585 547 642 592 q 755 294 755 477 m 594 758 q 551 871 594 822 q 454 924 517 910 q 398 933 429 930 q 342 935 374 935 l 205 935 l 205 585 l 380 585 q 425 589 405 586 q 511 614 475 595 q 594 758 594 658 m 652 294 q 532 468 652 418 q 433 489 490 484 q 382 492 411 491 l 205 492 l 205 93 l 399 94 l 448 96 q 544 119 503 102 q 652 294 652 165 z "},"C":{"ha":1129,"x_min":60,"x_max":1071,"o":"m 1071 269 q 597 -18 914 -18 q 218 136 375 -18 q 60 513 60 291 q 216 891 60 737 q 596 1044 371 1044 q 1002 861 840 1044 q 1067 764 1046 811 l 951 764 q 594 951 825 951 q 290 819 418 951 q 163 511 163 688 q 292 207 163 338 q 596 75 422 75 q 799 128 704 75 q 956 269 887 178 l 1071 269 z "},"D":{"ha":1033,"x_min":102,"x_max":970,"o":"m 970 511 q 737 85 970 237 q 576 20 671 43 q 402 0 490 0 l 102 0 l 102 1028 l 402 1028 q 576 1008 491 1028 q 737 943 671 985 q 970 511 970 794 m 867 515 q 692 856 867 735 q 530 922 624 904 q 444 932 491 929 q 354 935 406 935 l 205 935 l 205 93 l 376 93 q 465 96 427 93 q 549 107 511 99 q 707 176 637 126 q 827 327 783 232 q 867 515 867 416 z "},"E":{"ha":744,"x_min":97,"x_max":659,"o":"m 97 0 l 97 1028 l 659 1028 l 659 935 l 200 935 l 200 566 l 644 566 l 644 472 l 200 472 l 200 93 l 659 93 l 659 0 l 97 0 z "},"F":{"ha":673,"x_min":97,"x_max":616,"o":"m 200 935 l 200 562 l 601 562 l 601 469 l 200 469 l 200 0 l 97 0 l 97 1028 l 616 1028 l 616 935 l 200 935 z "},"G":{"ha":1211,"x_min":55,"x_max":1149,"o":"m 1149 472 q 975 121 1133 262 q 606 -18 818 -18 q 221 136 385 -18 q 55 514 55 294 q 220 892 55 736 q 605 1046 381 1046 q 1025 857 859 1046 q 1091 754 1069 807 l 972 754 q 815 901 919 846 q 606 953 715 953 q 291 825 422 953 q 158 513 158 696 q 292 201 158 328 q 610 75 425 75 q 869 160 749 75 q 1026 379 992 248 l 452 379 l 452 472 l 1149 472 z "},"H":{"ha":948,"x_min":105,"x_max":842,"o":"m 740 0 l 740 482 l 208 482 l 208 0 l 105 0 l 105 1028 l 208 1028 l 208 575 l 740 575 l 740 1028 l 842 1028 l 842 0 l 740 0 z "},"I":{"ha":313,"x_min":105,"x_max":208,"o":"m 105 0 l 105 1028 l 208 1028 l 208 0 l 105 0 z "},"J":{"ha":669,"x_min":8,"x_max":558,"o":"m 557 277 l 555 227 q 532 131 549 170 q 288 -18 467 -18 q 92 55 170 -18 q 8 244 14 128 l 110 244 q 289 75 121 75 q 429 154 391 75 q 451 233 445 186 q 455 322 455 269 l 455 1028 l 558 1028 l 557 277 z "},"K":{"ha":821,"x_min":112,"x_max":820,"o":"m 691 0 l 348 446 l 215 282 l 215 0 l 112 0 l 112 1028 l 215 1028 l 215 437 l 218 437 l 688 1028 l 820 1028 l 413 526 l 820 0 l 691 0 z "},"L":{"ha":642,"x_min":113,"x_max":641,"o":"m 113 0 l 113 1028 l 216 1028 l 216 93 l 641 93 l 641 0 l 113 0 z "},"M":{"ha":1276,"x_min":105,"x_max":1171,"o":"m 1067 0 l 1067 916 l 1065 916 l 680 0 l 593 0 l 211 916 l 208 916 l 208 0 l 105 0 l 105 1028 l 263 1028 l 637 153 l 1012 1028 l 1171 1028 l 1171 0 l 1067 0 z "},"N":{"ha":1027,"x_min":104,"x_max":922,"o":"m 819 0 l 210 904 l 207 904 l 207 0 l 104 0 l 104 1028 l 243 1028 l 817 175 l 819 175 l 819 1028 l 922 1028 l 922 0 l 819 0 z "},"O":{"ha":1206,"x_min":60,"x_max":1147,"o":"m 1147 514 q 985 136 1147 293 q 603 -18 825 -18 q 223 135 385 -18 q 60 509 60 291 q 219 890 60 732 q 603 1046 378 1046 q 985 891 825 1046 q 1147 514 1147 735 m 1044 513 q 914 823 1044 694 q 603 953 784 953 q 291 822 420 953 q 163 509 163 691 q 294 203 163 331 q 603 75 425 75 q 913 203 783 75 q 1044 513 1044 332 z "},"P":{"ha":822,"x_min":104,"x_max":783,"o":"m 783 721 q 655 473 783 561 q 528 424 602 437 q 459 416 496 418 q 390 414 429 414 l 207 414 l 207 0 l 104 0 l 104 1028 l 390 1028 q 459 1026 429 1028 q 528 1018 496 1023 q 655 968 602 1004 q 783 721 783 881 m 680 721 q 561 908 680 852 q 475 932 522 927 l 431 935 l 207 935 l 207 507 l 431 507 l 475 510 q 561 533 522 515 q 680 721 680 590 z "},"Q":{"ha":1209,"x_min":55,"x_max":1162,"o":"m 1162 505 q 992 131 1162 289 q 1145 75 1060 73 l 1145 -18 q 916 71 1014 -18 q 608 -18 782 -18 q 221 133 383 -18 q 55 510 55 287 q 218 894 55 740 q 609 1046 377 1046 q 1002 893 843 1046 q 1162 505 1162 739 m 1059 509 q 928 824 1059 694 q 610 953 797 953 q 290 823 421 953 q 158 504 158 693 q 176 387 158 444 q 393 422 282 422 q 678 362 550 422 q 798 292 736 335 q 918 197 850 255 q 1020 338 984 262 q 1059 509 1059 421 m 803 168 q 768 196 781 186 q 696 245 726 229 q 377 329 557 329 q 218 300 286 329 q 277 218 237 260 q 610 75 410 75 q 837 142 743 75 l 803 168 z "},"R":{"ha":843,"x_min":97,"x_max":794,"o":"m 794 696 q 706 478 794 566 q 489 383 620 392 l 779 0 l 650 0 l 301 465 l 412 466 q 522 481 482 468 q 692 699 692 532 q 579 896 692 835 q 482 928 535 920 q 379 935 443 935 l 200 935 l 200 0 l 97 0 l 97 1028 l 358 1028 q 420 1027 393 1028 q 486 1021 456 1025 q 611 989 562 1012 q 794 696 794 901 z "},"S":{"ha":691,"x_min":31,"x_max":657,"o":"m 657 283 q 566 68 657 156 q 347 -18 475 -18 q 121 66 210 -18 q 31 288 33 150 l 134 288 q 347 75 142 75 q 493 134 433 75 q 554 279 554 193 q 481 429 554 372 q 408 470 452 451 q 325 498 375 484 q 222 534 260 517 q 137 583 170 556 q 58 770 58 648 q 143 968 58 890 q 347 1046 227 1046 q 549 966 467 1046 q 632 766 632 886 l 529 766 q 476 897 529 842 q 347 953 422 953 q 216 902 269 953 q 161 774 161 851 q 244 637 161 684 q 323 605 275 621 l 406 581 q 587 475 523 545 q 657 283 657 398 z "},"T":{"ha":591,"x_min":8,"x_max":582,"o":"m 347 935 l 347 0 l 244 0 l 244 935 l 8 935 l 8 1028 l 582 1028 l 582 935 l 347 935 z "},"U":{"ha":909,"x_min":104,"x_max":804,"o":"m 804 387 q 795 278 804 330 q 765 174 785 218 q 454 -18 675 -18 q 142 174 232 -18 q 113 278 122 218 q 104 387 104 330 l 104 1028 l 207 1028 l 207 387 q 214 292 207 337 q 241 201 222 235 q 454 75 311 75 q 666 201 597 75 q 694 292 685 235 q 701 387 701 337 l 701 1028 l 804 1028 l 804 387 z "},"V":{"ha":975,"x_min":11,"x_max":962,"o":"m 536 0 l 435 0 l 11 1028 l 125 1028 l 487 127 l 851 1028 l 962 1028 l 536 0 z "},"W":{"ha":1333,"x_min":15,"x_max":1319,"o":"m 1025 0 l 894 0 l 668 843 l 665 843 l 440 0 l 308 0 l 15 1028 l 121 1028 l 372 132 l 374 132 l 619 1028 l 715 1028 l 961 134 l 964 134 l 1215 1028 l 1319 1028 l 1025 0 z "},"X":{"ha":846,"x_min":11,"x_max":836,"o":"m 713 0 l 425 439 l 132 0 l 11 0 l 359 525 l 31 1028 l 151 1028 l 425 616 l 696 1028 l 815 1028 l 484 525 l 836 0 l 713 0 z "},"Y":{"ha":822,"x_min":1,"x_max":822,"o":"m 461 343 l 461 0 l 358 0 l 358 343 l 1 1028 l 115 1028 l 408 452 l 709 1028 l 822 1028 l 461 343 z "},"Z":{"ha":667,"x_min":16,"x_max":652,"o":"m 16 0 l 16 93 l 522 935 l 32 935 l 32 1028 l 637 1028 l 637 935 l 133 93 l 652 93 l 652 0 l 16 0 z "},"[":{"ha":487,"x_min":184,"x_max":468,"o":"m 468 -249 q 184 135 184 -171 l 184 660 q 366 1002 184 891 q 468 1046 417 1034 l 468 942 q 288 660 288 863 l 288 153 q 325 -27 288 39 q 468 -144 366 -99 l 468 -249 z "},"\\":{"ha":840,"x_min":163,"x_max":662,"o":"m 557 -139 l 163 1028 l 273 1028 l 662 -139 l 557 -139 z "},"]":{"ha":487,"x_min":19,"x_max":302,"o":"m 302 135 q 19 -249 302 -171 l 19 -144 q 162 -27 121 -99 q 199 153 199 39 l 199 660 q 19 942 199 863 l 19 1046 q 121 1002 70 1034 q 302 660 302 891 l 302 135 z "},"^":{"ha":842,"x_min":73,"x_max":768,"o":"m 671 427 l 419 926 l 172 427 l 73 427 l 376 1028 l 465 1028 l 768 427 l 671 427 z "},"_":{"ha":694,"x_min":0,"x_max":694,"o":"m 0 -174 l 0 -104 l 694 -104 l 694 -174 l 0 -174 z "},"`":{"ha":487,"x_min":132,"x_max":357,"o":"m 254 758 l 132 1028 l 235 1028 l 357 758 l 254 758 z "},"a":{"ha":948,"x_min":58,"x_max":863,"o":"m 765 0 l 765 134 l 762 134 q 467 -18 662 -18 q 177 96 295 -18 q 58 382 58 211 q 178 666 58 551 q 467 779 297 779 q 762 627 665 779 l 765 627 l 765 760 l 863 760 l 863 0 l 765 0 m 771 379 q 684 599 771 507 q 467 692 595 692 q 243 602 332 692 q 155 378 155 513 q 244 157 155 245 q 467 69 333 69 q 684 161 595 69 q 771 379 771 251 z "},"b":{"ha":947,"x_min":94,"x_max":899,"o":"m 899 382 q 780 96 899 211 q 490 -18 662 -18 q 194 134 298 -18 l 191 134 l 191 0 l 94 0 l 94 1028 l 191 1028 l 191 627 l 194 627 q 490 779 301 779 q 778 666 660 779 q 899 382 899 551 m 801 378 q 713 602 801 513 q 490 692 625 692 q 273 599 362 692 q 186 379 186 507 q 273 161 186 251 q 490 69 362 69 q 712 157 624 69 q 801 378 801 245 z "},"c":{"ha":899,"x_min":56,"x_max":842,"o":"m 842 224 q 465 -18 720 -18 q 176 96 295 -18 q 56 379 56 211 q 177 663 56 546 q 465 779 297 779 q 692 713 590 779 q 842 530 796 646 l 735 530 q 467 692 650 692 q 245 602 336 692 q 153 382 153 513 q 244 159 153 250 q 467 69 335 69 q 735 224 655 69 l 842 224 z "},"d":{"ha":951,"x_min":54,"x_max":858,"o":"m 760 0 l 760 134 l 758 134 q 462 -18 656 -18 q 172 96 290 -18 q 54 382 54 211 q 174 666 54 551 q 462 779 292 779 q 758 629 655 779 l 760 629 l 760 1028 l 858 1028 l 858 0 l 760 0 m 766 379 q 679 599 766 507 q 462 692 590 692 q 239 602 327 692 q 151 378 151 513 q 239 157 151 245 q 462 69 328 69 q 679 161 590 69 q 766 379 766 251 z "},"e":{"ha":903,"x_min":52,"x_max":845,"o":"m 844 345 l 152 345 q 246 151 157 233 q 447 69 334 69 q 611 117 536 69 q 719 249 688 166 l 822 249 q 677 56 780 130 q 448 -18 574 -18 q 168 99 284 -18 q 52 379 52 215 q 168 661 52 543 q 447 779 284 779 q 729 658 612 779 q 845 372 845 538 l 844 345 m 745 432 q 644 618 726 545 q 448 692 562 692 q 252 618 336 692 q 152 432 170 545 l 745 432 z "},"f":{"ha":436,"x_min":26,"x_max":435,"o":"m 241 672 l 241 0 l 144 0 l 144 672 l 26 672 l 26 760 l 144 760 l 145 788 q 147 817 146 804 q 157 873 150 848 q 262 1010 182 968 q 435 1046 328 1044 l 435 956 q 241 765 241 956 l 241 760 l 435 760 l 435 672 l 241 672 z "},"g":{"ha":935,"x_min":51,"x_max":841,"o":"m 841 119 q 839 45 841 76 q 830 -26 836 6 q 772 -158 814 -102 q 470 -298 665 -298 q 227 -227 330 -298 q 81 -20 120 -153 l 184 -20 q 469 -211 260 -211 q 671 -133 596 -211 q 744 72 744 -56 l 744 139 l 741 139 q 617 21 701 63 q 448 -18 540 -18 q 168 96 283 -18 q 51 376 51 212 q 166 661 51 543 q 448 779 282 779 q 741 624 641 779 l 744 624 l 744 760 l 841 760 l 841 119 m 749 379 q 663 598 749 506 q 448 692 574 692 q 234 598 321 692 q 148 379 148 507 q 234 162 148 252 q 448 69 321 69 q 662 162 573 69 q 749 379 749 253 z "},"h":{"ha":847,"x_min":85,"x_max":753,"o":"m 656 0 l 656 418 q 640 530 656 479 q 584 627 622 591 q 419 692 515 692 q 254 627 323 692 q 198 533 216 591 q 182 425 182 483 l 182 0 l 85 0 l 85 1028 l 182 1028 l 182 663 l 185 663 q 419 779 260 779 q 668 677 578 779 q 753 418 753 580 l 753 0 l 656 0 z "},"i":{"ha":277,"x_min":90,"x_max":187,"o":"m 90 852 l 90 1028 l 187 1028 l 187 852 l 90 852 m 90 0 l 90 760 l 187 760 l 187 0 l 90 0 z "},"j":{"ha":281,"x_min":-61,"x_max":191,"o":"m 93 852 l 93 1028 l 191 1028 l 191 852 l 93 852 m 191 36 q 177 -95 191 -47 q 107 -205 158 -161 q -61 -267 39 -264 l -61 -171 q 68 -100 33 -168 q 88 -30 82 -72 q 93 53 93 3 l 93 760 l 191 760 l 191 36 z "},"k":{"ha":697,"x_min":97,"x_max":692,"o":"m 566 0 l 317 300 l 194 144 l 194 0 l 97 0 l 97 1028 l 194 1028 l 194 296 l 197 296 l 551 760 l 676 760 l 376 376 l 692 0 l 566 0 z "},"l":{"ha":277,"x_min":90,"x_max":187,"o":"m 90 0 l 90 1028 l 187 1028 l 187 0 l 90 0 z "},"m":{"ha":1303,"x_min":92,"x_max":1211,"o":"m 1114 0 l 1114 440 q 1067 616 1114 551 q 907 692 1013 692 q 747 616 801 692 q 700 440 700 551 l 700 0 l 603 0 l 603 440 q 555 616 603 551 q 396 692 502 692 q 236 616 290 692 q 189 440 189 551 l 189 0 l 92 0 l 92 760 l 189 760 l 189 672 q 396 779 256 779 q 651 633 570 779 q 907 779 743 779 q 1132 685 1049 779 q 1211 452 1211 595 l 1211 0 l 1114 0 z "},"n":{"ha":847,"x_min":90,"x_max":758,"o":"m 661 0 l 661 418 q 645 530 661 479 q 589 627 627 591 q 424 692 519 692 q 258 627 328 692 q 203 533 221 591 q 187 425 187 483 l 187 0 l 90 0 l 90 760 l 187 760 l 187 663 l 190 663 q 424 779 265 779 q 673 677 583 779 q 758 418 758 580 l 758 0 l 661 0 z "},"o":{"ha":909,"x_min":58,"x_max":852,"o":"m 852 380 q 735 100 852 217 q 454 -18 618 -18 q 176 98 294 -18 q 58 375 58 215 q 174 659 58 541 q 454 779 290 779 q 734 661 616 779 q 852 380 852 543 m 755 385 q 668 600 755 509 q 456 692 580 692 q 241 597 328 692 q 155 376 155 505 q 243 161 155 252 q 456 69 331 69 q 671 163 585 69 q 755 385 755 254 z "},"p":{"ha":947,"x_min":89,"x_max":893,"o":"m 893 382 q 774 96 893 211 q 485 -18 656 -18 q 189 134 293 -18 l 186 134 l 186 -267 l 89 -267 l 89 760 l 186 760 l 186 627 l 189 627 q 485 779 296 779 q 772 666 654 779 q 893 382 893 551 m 795 378 q 708 602 795 513 q 485 692 620 692 q 268 599 357 692 q 180 379 180 507 q 268 161 180 251 q 485 69 357 69 q 707 157 618 69 q 795 378 795 245 z "},"q":{"ha":947,"x_min":51,"x_max":855,"o":"m 758 -267 l 758 134 l 755 134 q 459 -18 656 -18 q 170 96 288 -18 q 51 382 51 211 q 171 666 51 551 q 459 779 290 779 q 755 627 656 779 l 758 627 l 758 760 l 855 760 l 855 -267 l 758 -267 m 764 379 q 676 599 764 507 q 459 692 587 692 q 236 602 324 692 q 148 378 148 513 q 237 157 148 245 q 459 69 326 69 q 676 161 587 69 q 764 379 764 251 z "},"r":{"ha":418,"x_min":90,"x_max":404,"o":"m 404 676 q 187 444 187 659 l 187 0 l 90 0 l 90 760 l 187 760 l 187 650 l 190 650 q 276 749 220 718 q 404 779 322 773 l 404 676 z "},"s":{"ha":538,"x_min":33,"x_max":505,"o":"m 505 214 q 267 -18 505 -18 q 99 48 165 -18 q 33 216 33 115 l 33 225 l 130 225 q 267 69 133 69 q 408 205 408 69 q 353 311 408 272 q 296 342 332 327 l 232 367 q 167 395 191 382 q 111 433 133 412 q 56 568 56 483 q 117 720 56 661 q 272 779 178 779 q 419 720 359 779 q 479 572 479 660 l 382 572 q 268 692 374 692 q 153 578 153 692 q 208 487 153 521 q 264 460 229 474 l 280 454 q 296 448 286 452 l 329 436 q 394 406 368 420 q 450 365 428 388 q 505 214 505 309 z "},"t":{"ha":471,"x_min":19,"x_max":458,"o":"m 276 672 l 276 0 l 179 0 l 179 672 l 19 672 l 19 760 l 179 760 l 179 1028 l 276 1028 l 276 760 l 458 760 l 458 672 l 276 672 z "},"u":{"ha":844,"x_min":85,"x_max":751,"o":"m 659 0 l 659 118 l 656 118 q 555 15 625 51 q 413 -18 492 -18 q 152 96 242 -18 q 98 212 115 143 q 85 340 85 267 l 85 760 l 182 760 l 182 342 q 233 146 182 214 q 413 69 290 69 q 574 131 509 69 q 639 235 621 175 q 654 358 654 283 l 654 760 l 751 760 l 751 0 l 659 0 z "},"v":{"ha":769,"x_min":9,"x_max":758,"o":"m 437 0 l 330 0 l 9 760 l 114 760 l 382 121 l 654 760 l 758 760 l 437 0 z "},"w":{"ha":1154,"x_min":18,"x_max":1139,"o":"m 848 0 l 739 0 l 577 505 l 574 505 l 416 0 l 307 0 l 18 760 l 119 760 l 358 123 l 361 123 l 534 668 l 619 668 l 794 123 l 797 123 l 1038 760 l 1139 760 l 848 0 z "},"x":{"ha":667,"x_min":16,"x_max":650,"o":"m 534 0 l 333 304 l 132 0 l 16 0 l 276 386 l 16 760 l 133 760 l 333 467 l 532 760 l 650 760 l 390 386 l 650 0 l 534 0 z "},"y":{"ha":744,"x_min":20,"x_max":726,"o":"m 286 -267 l 184 -267 l 316 25 l 20 760 l 123 760 l 365 154 l 623 760 l 726 760 l 286 -267 z "},"z":{"ha":590,"x_min":14,"x_max":576,"o":"m 14 0 l 14 85 l 435 672 l 27 672 l 27 760 l 551 760 l 551 672 l 134 87 l 576 87 l 576 0 l 14 0 z "},"{":{"ha":487,"x_min":97,"x_max":460,"o":"m 368 -262 q 256 -205 296 -262 q 220 -81 220 -155 l 220 172 q 191 281 220 234 q 97 338 156 334 l 97 427 q 189 484 154 429 q 220 593 220 532 l 220 846 q 256 970 220 920 q 368 1028 296 1028 l 460 1028 l 460 945 l 390 945 q 334 901 351 945 q 323 825 323 873 l 323 571 q 293 457 323 509 q 203 385 260 399 l 203 380 q 251 359 227 376 q 308 286 289 334 q 323 195 323 246 l 323 -60 q 334 -136 323 -107 q 390 -179 351 -179 l 460 -179 l 460 -262 l 368 -262 z "},"|":{"ha":933,"x_min":415,"x_max":518,"o":"m 415 -309 l 415 1080 l 518 1080 l 518 -309 l 415 -309 z "},"}":{"ha":487,"x_min":27,"x_max":390,"o":"m 390 338 q 296 281 330 334 q 266 172 266 234 l 266 -81 q 231 -205 266 -155 q 119 -262 190 -262 l 27 -262 l 27 -179 l 96 -179 q 153 -136 136 -179 q 163 -60 163 -107 l 163 195 q 179 286 163 246 q 235 359 197 334 q 284 380 259 376 l 284 385 q 193 457 227 399 q 163 571 163 509 l 163 825 q 153 901 163 873 q 96 945 136 945 l 27 945 l 27 1028 l 119 1028 q 231 970 190 1028 q 266 846 266 920 l 266 593 q 297 484 266 532 q 390 427 332 429 l 390 338 z "},"~":{"ha":842,"x_min":100,"x_max":741,"o":"m 741 374 q 669 290 700 315 q 568 254 624 254 q 490 270 531 254 q 418 304 465 279 q 345 338 370 329 q 267 354 304 354 q 193 319 225 354 q 150 249 171 296 l 100 318 q 273 437 161 437 q 355 422 309 437 q 437 387 388 411 l 475 369 q 511 353 497 359 q 569 338 548 338 q 641 374 606 338 q 669 409 654 389 q 680 427 673 416 l 691 443 l 741 374 z "},"¨":{"ha":694,"x_min":0,"x_max":0,"o":""},"©":{"ha":1037,"x_min":-12,"x_max":1049,"o":"m 1049 514 q 894 139 1049 295 q 519 -17 739 -17 q 144 138 300 -17 q -12 514 -12 294 q 144 890 -12 734 q 519 1044 300 1044 q 895 888 739 1044 q 1049 514 1049 733 m 972 514 q 841 838 972 703 q 518 974 708 974 q 196 838 328 974 q 64 514 64 704 q 196 190 64 324 q 518 54 329 54 q 841 190 708 54 q 972 514 972 324 m 793 410 q 701 255 783 315 q 527 199 625 199 q 308 290 391 199 q 228 515 228 378 q 308 741 228 652 q 527 832 391 832 q 701 776 625 832 q 793 621 783 716 l 717 621 q 527 761 686 761 q 360 690 420 761 q 304 515 304 624 q 360 340 304 407 q 527 269 420 269 q 717 410 686 269 l 793 410 z "},"®":{"ha":1037,"x_min":-12,"x_max":1049,"o":"m 1049 514 q 894 139 1049 295 q 519 -17 739 -17 q 144 138 300 -17 q -12 514 -12 294 q 144 890 -12 734 q 519 1044 300 1044 q 895 888 739 1044 q 1049 514 1049 733 m 972 514 q 841 838 972 703 q 518 974 708 974 q 196 838 328 974 q 64 514 64 704 q 196 190 64 324 q 518 54 329 54 q 841 190 708 54 q 972 514 972 324 m 693 205 q 678 260 682 224 q 677 275 677 267 l 675 318 q 642 434 673 405 q 519 463 610 463 l 368 463 l 368 205 l 292 205 l 292 812 l 553 812 q 697 777 643 812 q 762 647 762 733 q 649 500 762 527 l 649 497 q 729 442 707 481 q 750 346 747 412 l 753 274 q 770 205 756 229 l 693 205 m 685 643 q 635 725 685 701 q 535 742 600 742 l 368 742 l 368 532 l 530 532 q 635 553 596 532 q 685 643 685 581 z "},"´":{"ha":694,"x_min":0,"x_max":0,"o":""},"¶":{"ha":694,"x_min":63,"x_max":630,"o":"m 630 973 l 630 926 l 544 926 l 544 0 l 488 0 l 488 926 l 376 926 l 376 0 l 319 0 l 319 500 q 132 570 201 506 q 63 736 63 634 q 136 908 63 843 q 330 973 209 973 l 630 973 z "},"¼":{"ha":880,"x_min":0,"x_max":0,"o":""},"½":{"ha":895,"x_min":0,"x_max":0,"o":""},"¾":{"ha":873,"x_min":0,"x_max":0,"o":""},"À":{"ha":1027,"x_min":16,"x_max":1012,"o":"m 900 0 l 751 346 l 273 346 l 123 0 l 16 0 l 455 1028 l 570 1028 l 1012 0 l 900 0 m 513 911 l 312 439 l 711 439 l 513 911 m 622 1086 l 347 1235 l 391 1318 l 668 1166 l 622 1086 z "},"Á":{"ha":1027,"x_min":16,"x_max":1012,"o":"m 900 0 l 751 346 l 273 346 l 123 0 l 16 0 l 455 1028 l 570 1028 l 1012 0 l 900 0 m 513 911 l 312 439 l 711 439 l 513 911 m 408 1086 l 362 1166 l 639 1318 l 683 1235 l 408 1086 z "},"Ả":{"ha":1027,"x_min":16,"x_max":1012,"o":"m 900 0 l 751 346 l 273 346 l 123 0 l 16 0 l 455 1028 l 570 1028 l 1012 0 l 900 0 m 513 911 l 312 439 l 711 439 l 513 911 m 666 1278 q 647 1217 666 1246 q 631 1198 642 1209 l 623 1188 l 595 1161 q 579 1141 587 1152 q 565 1082 567 1122 l 479 1082 l 479 1100 q 498 1167 479 1135 q 516 1192 503 1177 q 534 1209 522 1198 l 552 1227 q 568 1246 561 1236 q 579 1279 579 1261 q 562 1324 579 1308 q 520 1342 542 1342 q 470 1314 489 1342 q 461 1291 463 1303 q 460 1249 460 1283 l 372 1249 l 372 1276 q 418 1373 372 1331 q 522 1412 460 1412 q 624 1374 585 1412 q 666 1278 666 1333 z "},"Ã":{"ha":1027,"x_min":16,"x_max":1012,"o":"m 900 0 l 751 346 l 273 346 l 123 0 l 16 0 l 455 1028 l 570 1028 l 1012 0 l 900 0 m 513 911 l 312 439 l 711 439 l 513 911 m 753 1171 q 618 1117 681 1117 q 560 1126 590 1117 q 510 1145 541 1131 l 463 1164 q 416 1174 437 1174 q 323 1132 368 1174 l 275 1202 q 419 1260 337 1260 q 475 1251 446 1260 q 524 1232 494 1245 q 530 1229 526 1230 q 536 1226 534 1227 q 547 1221 543 1223 l 570 1212 q 616 1203 595 1203 q 662 1215 638 1203 l 693 1232 l 704 1239 l 753 1171 z "},"Ạ":{"ha":1027,"x_min":16,"x_max":1012,"o":"m 900 0 l 751 346 l 273 346 l 123 0 l 16 0 l 455 1028 l 570 1028 l 1012 0 l 900 0 m 513 911 l 312 439 l 711 439 l 513 911 m 463 -261 l 463 -85 l 566 -85 l 566 -261 l 463 -261 z "},"Â":{"ha":1027,"x_min":16,"x_max":1012,"o":"m 900 0 l 751 346 l 273 346 l 123 0 l 16 0 l 455 1028 l 570 1028 l 1012 0 l 900 0 m 513 911 l 312 439 l 711 439 l 513 911 m 635 1114 l 516 1215 l 394 1114 l 268 1114 l 469 1287 l 561 1287 l 760 1114 l 635 1114 z "},"Ầ":{"ha":1027,"x_min":16,"x_max":1012,"o":"m 900 0 l 751 346 l 273 346 l 123 0 l 16 0 l 455 1028 l 570 1028 l 1012 0 l 900 0 m 513 911 l 312 439 l 711 439 l 513 911 m 683 1263 l 408 1412 l 452 1495 l 729 1343 l 683 1263 m 635 1114 l 516 1215 l 394 1114 l 268 1114 l 469 1287 l 561 1287 l 760 1114 l 635 1114 z "},"Ấ":{"ha":1027,"x_min":16,"x_max":1012,"o":"m 900 0 l 751 346 l 273 346 l 123 0 l 16 0 l 455 1028 l 570 1028 l 1012 0 l 900 0 m 513 911 l 312 439 l 711 439 l 513 911 m 681 1223 l 635 1303 l 911 1455 l 956 1371 l 681 1223 m 635 1114 l 516 1215 l 394 1114 l 268 1114 l 469 1287 l 561 1287 l 760 1114 l 635 1114 z "},"Ẩ":{"ha":1027,"x_min":16,"x_max":1012,"o":"m 900 0 l 751 346 l 273 346 l 123 0 l 16 0 l 455 1028 l 570 1028 l 1012 0 l 900 0 m 513 911 l 312 439 l 711 439 l 513 911 m 816 1448 q 797 1387 816 1417 q 781 1368 792 1379 l 772 1358 l 745 1331 q 729 1311 736 1322 q 715 1252 717 1293 l 629 1252 l 629 1270 q 648 1337 629 1305 q 666 1362 653 1347 q 684 1379 671 1368 l 702 1397 q 718 1416 711 1407 q 729 1449 729 1431 q 711 1494 729 1478 q 670 1512 692 1512 q 620 1484 639 1512 q 611 1461 613 1474 q 610 1419 610 1453 l 522 1419 l 522 1446 q 568 1544 522 1501 q 671 1582 610 1582 q 774 1544 734 1582 q 816 1448 816 1503 m 635 1114 l 516 1215 l 394 1114 l 268 1114 l 469 1287 l 561 1287 l 760 1114 l 635 1114 z "},"Ẫ":{"ha":1027,"x_min":16,"x_max":1012,"o":"m 900 0 l 751 346 l 273 346 l 123 0 l 16 0 l 455 1028 l 570 1028 l 1012 0 l 900 0 m 513 911 l 312 439 l 711 439 l 513 911 m 828 1348 q 692 1294 755 1294 q 635 1303 665 1294 q 585 1322 615 1308 l 538 1341 q 491 1351 512 1351 q 398 1309 442 1351 l 349 1379 q 494 1437 412 1437 q 549 1428 521 1437 q 599 1409 568 1422 q 604 1406 600 1407 q 610 1403 608 1404 q 622 1398 617 1400 l 644 1389 q 691 1380 670 1380 q 736 1392 713 1380 l 768 1409 l 779 1416 l 828 1348 m 635 1114 l 516 1215 l 394 1114 l 268 1114 l 469 1287 l 561 1287 l 760 1114 l 635 1114 z "},"Ậ":{"ha":1027,"x_min":16,"x_max":1012,"o":"m 900 0 l 751 346 l 273 346 l 123 0 l 16 0 l 455 1028 l 570 1028 l 1012 0 l 900 0 m 513 911 l 312 439 l 711 439 l 513 911 m 463 -261 l 463 -85 l 566 -85 l 566 -261 l 463 -261 m 635 1114 l 516 1215 l 394 1114 l 268 1114 l 469 1287 l 561 1287 l 760 1114 l 635 1114 z "},"Ă":{"ha":1027,"x_min":16,"x_max":1012,"o":"m 900 0 l 751 346 l 273 346 l 123 0 l 16 0 l 455 1028 l 570 1028 l 1012 0 l 900 0 m 513 911 l 312 439 l 711 439 l 513 911 m 757 1236 q 660 1124 729 1161 q 513 1093 600 1093 q 368 1124 427 1093 q 272 1236 299 1160 l 362 1236 q 513 1173 409 1173 q 597 1187 559 1173 q 666 1236 642 1203 l 757 1236 z "},"Ằ":{"ha":1027,"x_min":16,"x_max":1012,"o":"m 900 0 l 751 346 l 273 346 l 123 0 l 16 0 l 455 1028 l 570 1028 l 1012 0 l 900 0 m 513 911 l 312 439 l 711 439 l 513 911 m 581 1263 l 305 1412 l 350 1495 l 627 1343 l 581 1263 m 757 1236 q 661 1124 730 1161 q 514 1093 600 1093 q 368 1124 427 1093 q 272 1236 300 1160 l 363 1236 q 514 1173 410 1173 q 598 1187 560 1173 q 667 1236 642 1203 l 757 1236 z "},"Ắ":{"ha":1027,"x_min":16,"x_max":1012,"o":"m 900 0 l 751 346 l 273 346 l 123 0 l 16 0 l 455 1028 l 570 1028 l 1012 0 l 900 0 m 513 911 l 312 439 l 711 439 l 513 911 m 524 1223 l 478 1303 l 755 1455 l 799 1371 l 524 1223 m 757 1236 q 661 1124 730 1161 q 514 1093 600 1093 q 368 1124 427 1093 q 272 1236 300 1160 l 363 1236 q 514 1173 410 1173 q 598 1187 560 1173 q 667 1236 642 1203 l 757 1236 z "},"Ẳ":{"ha":1027,"x_min":16,"x_max":1012,"o":"m 900 0 l 751 346 l 273 346 l 123 0 l 16 0 l 455 1028 l 570 1028 l 1012 0 l 900 0 m 513 911 l 312 439 l 711 439 l 513 911 m 666 1448 q 647 1387 666 1417 q 631 1368 642 1379 l 623 1358 l 595 1331 q 579 1311 587 1322 q 565 1252 567 1293 l 479 1252 l 479 1270 q 498 1337 479 1305 q 516 1362 503 1347 q 534 1379 522 1368 l 552 1397 q 568 1416 561 1407 q 579 1449 579 1431 q 562 1494 579 1478 q 520 1512 542 1512 q 470 1484 489 1512 q 461 1461 463 1474 q 460 1419 460 1453 l 372 1419 l 372 1446 q 418 1544 372 1501 q 522 1582 460 1582 q 624 1544 585 1582 q 666 1448 666 1503 m 757 1236 q 661 1124 730 1161 q 514 1093 600 1093 q 368 1124 427 1093 q 272 1236 300 1160 l 363 1236 q 514 1173 410 1173 q 598 1187 560 1173 q 667 1236 642 1203 l 757 1236 z "},"Ẵ":{"ha":1027,"x_min":16,"x_max":1012,"o":"m 900 0 l 751 346 l 273 346 l 123 0 l 16 0 l 455 1028 l 570 1028 l 1012 0 l 900 0 m 513 911 l 312 439 l 711 439 l 513 911 m 828 1348 q 692 1294 755 1294 q 635 1303 665 1294 q 585 1322 615 1308 l 538 1341 q 491 1351 512 1351 q 398 1309 442 1351 l 349 1379 q 494 1437 412 1437 q 549 1428 521 1437 q 599 1409 568 1422 q 604 1406 600 1407 q 610 1403 608 1404 q 622 1398 617 1400 l 644 1389 q 691 1380 670 1380 q 736 1392 713 1380 l 768 1409 l 779 1416 l 828 1348 m 757 1236 q 661 1124 730 1161 q 514 1093 600 1093 q 368 1124 427 1093 q 272 1236 300 1160 l 363 1236 q 514 1173 410 1173 q 598 1187 560 1173 q 667 1236 642 1203 l 757 1236 z "},"Ặ":{"ha":1027,"x_min":16,"x_max":1012,"o":"m 900 0 l 751 346 l 273 346 l 123 0 l 16 0 l 455 1028 l 570 1028 l 1012 0 l 900 0 m 513 911 l 312 439 l 711 439 l 513 911 m 463 -261 l 463 -85 l 566 -85 l 566 -261 l 463 -261 m 757 1236 q 661 1124 730 1161 q 514 1093 600 1093 q 368 1124 427 1093 q 272 1236 300 1160 l 363 1236 q 514 1173 410 1173 q 598 1187 560 1173 q 667 1236 642 1203 l 757 1236 z "},"È":{"ha":744,"x_min":97,"x_max":659,"o":"m 97 0 l 97 1028 l 659 1028 l 659 935 l 200 935 l 200 566 l 644 566 l 644 472 l 200 472 l 200 93 l 659 93 l 659 0 l 97 0 m 480 1086 l 205 1235 l 250 1318 l 526 1166 l 480 1086 z "},"É":{"ha":744,"x_min":97,"x_max":659,"o":"m 97 0 l 97 1028 l 659 1028 l 659 935 l 200 935 l 200 566 l 644 566 l 644 472 l 200 472 l 200 93 l 659 93 l 659 0 l 97 0 m 267 1086 l 220 1166 l 497 1318 l 541 1235 l 267 1086 z "},"Ẻ":{"ha":744,"x_min":97,"x_max":659,"o":"m 97 0 l 97 1028 l 659 1028 l 659 935 l 200 935 l 200 566 l 644 566 l 644 472 l 200 472 l 200 93 l 659 93 l 659 0 l 97 0 m 524 1278 q 505 1217 524 1246 q 489 1198 500 1209 l 480 1188 l 452 1161 q 437 1141 444 1152 q 422 1082 425 1122 l 336 1082 l 336 1100 q 355 1167 336 1135 q 374 1192 361 1177 q 391 1209 379 1198 l 410 1227 q 426 1246 418 1236 q 437 1279 437 1261 q 419 1324 437 1308 q 378 1342 399 1342 q 328 1314 347 1342 q 319 1291 321 1303 q 317 1249 317 1283 l 230 1249 l 230 1276 q 275 1373 230 1331 q 379 1412 317 1412 q 481 1374 442 1412 q 524 1278 524 1333 z "},"Ẽ":{"ha":744,"x_min":97,"x_max":659,"o":"m 97 0 l 97 1028 l 659 1028 l 659 935 l 200 935 l 200 566 l 644 566 l 644 472 l 200 472 l 200 93 l 659 93 l 659 0 l 97 0 m 631 1171 q 495 1117 558 1117 q 437 1126 467 1117 q 387 1145 418 1131 l 340 1164 q 294 1174 315 1174 q 201 1132 245 1174 l 152 1202 q 296 1260 214 1260 q 352 1251 323 1260 q 401 1232 371 1245 q 407 1229 403 1230 q 413 1226 411 1227 q 425 1221 420 1223 l 447 1212 q 494 1203 473 1203 q 539 1215 515 1203 l 570 1232 l 581 1239 l 631 1171 z "},"Ẹ":{"ha":744,"x_min":97,"x_max":659,"o":"m 97 0 l 97 1028 l 659 1028 l 659 935 l 200 935 l 200 566 l 644 566 l 644 472 l 200 472 l 200 93 l 659 93 l 659 0 l 97 0 m 327 -261 l 327 -85 l 430 -85 l 430 -261 l 327 -261 z "},"Ê":{"ha":744,"x_min":97,"x_max":659,"o":"m 97 0 l 97 1028 l 659 1028 l 659 935 l 200 935 l 200 566 l 644 566 l 644 472 l 200 472 l 200 93 l 659 93 l 659 0 l 97 0 m 494 1114 l 375 1215 l 252 1114 l 126 1114 l 328 1287 l 419 1287 l 618 1114 l 494 1114 z "},"Ề":{"ha":744,"x_min":97,"x_max":659,"o":"m 97 0 l 97 1028 l 659 1028 l 659 935 l 200 935 l 200 566 l 644 566 l 644 472 l 200 472 l 200 93 l 659 93 l 659 0 l 97 0 m 528 1257 l 254 1405 l 298 1489 l 574 1337 l 528 1257 m 494 1114 l 375 1215 l 252 1114 l 126 1114 l 328 1287 l 419 1287 l 618 1114 l 494 1114 z "},"Ế":{"ha":744,"x_min":97,"x_max":827,"o":"m 97 0 l 97 1028 l 659 1028 l 659 935 l 200 935 l 200 566 l 644 566 l 644 472 l 200 472 l 200 93 l 659 93 l 659 0 l 97 0 m 552 1216 l 506 1296 l 783 1448 l 827 1364 l 552 1216 m 494 1114 l 375 1215 l 252 1114 l 126 1114 l 328 1287 l 419 1287 l 618 1114 l 494 1114 z "},"Ể":{"ha":744,"x_min":97,"x_max":680,"o":"m 97 0 l 97 1028 l 659 1028 l 659 935 l 200 935 l 200 566 l 644 566 l 644 472 l 200 472 l 200 93 l 659 93 l 659 0 l 97 0 m 680 1448 q 661 1387 680 1417 q 645 1368 656 1379 l 636 1358 l 608 1331 q 593 1311 600 1322 q 578 1252 581 1293 l 492 1252 l 492 1270 q 511 1337 492 1305 q 530 1362 517 1347 q 547 1379 535 1368 l 566 1397 q 582 1416 574 1407 q 593 1449 593 1431 q 575 1494 593 1478 q 534 1512 555 1512 q 484 1484 503 1512 q 475 1461 477 1474 q 473 1419 473 1453 l 386 1419 l 386 1446 q 431 1544 386 1501 q 535 1582 473 1582 q 637 1544 598 1582 q 680 1448 680 1503 m 494 1114 l 375 1215 l 252 1114 l 126 1114 l 328 1287 l 419 1287 l 618 1114 l 494 1114 z "},"Ễ":{"ha":744,"x_min":97,"x_max":679,"o":"m 97 0 l 97 1028 l 659 1028 l 659 935 l 200 935 l 200 566 l 644 566 l 644 472 l 200 472 l 200 93 l 659 93 l 659 0 l 97 0 m 679 1341 q 543 1287 606 1287 q 486 1296 515 1287 q 435 1316 466 1301 l 389 1335 q 342 1344 363 1344 q 249 1302 293 1344 l 200 1372 q 345 1430 262 1430 q 400 1421 372 1430 q 450 1402 419 1415 q 455 1399 451 1400 q 461 1396 459 1397 q 473 1391 468 1393 l 495 1382 q 542 1373 521 1373 q 587 1385 564 1373 l 618 1402 l 629 1409 l 679 1341 m 494 1114 l 375 1215 l 252 1114 l 126 1114 l 328 1287 l 419 1287 l 618 1114 l 494 1114 z "},"Ệ":{"ha":744,"x_min":97,"x_max":659,"o":"m 97 0 l 97 1028 l 659 1028 l 659 935 l 200 935 l 200 566 l 644 566 l 644 472 l 200 472 l 200 93 l 659 93 l 659 0 l 97 0 m 327 -261 l 327 -85 l 430 -85 l 430 -261 l 327 -261 m 494 1114 l 375 1215 l 252 1114 l 126 1114 l 328 1287 l 419 1287 l 618 1114 l 494 1114 z "},"Ì":{"ha":313,"x_min":-65,"x_max":256,"o":"m 106 0 l 106 1028 l 208 1028 l 208 0 l 106 0 m 210 1086 l -65 1235 l -20 1318 l 256 1166 l 210 1086 z "},"Í":{"ha":313,"x_min":60,"x_max":380,"o":"m 106 0 l 106 1028 l 208 1028 l 208 0 l 106 0 m 106 1086 l 60 1166 l 336 1318 l 380 1235 l 106 1086 z "},"Ỉ":{"ha":313,"x_min":12,"x_max":305,"o":"m 105 0 l 105 1028 l 208 1028 l 208 0 l 105 0 m 305 1278 q 286 1217 305 1246 q 271 1198 281 1209 l 262 1188 l 234 1161 q 218 1141 226 1152 q 204 1082 206 1122 l 118 1082 l 118 1100 q 137 1167 118 1135 q 155 1192 142 1177 q 173 1209 161 1198 l 191 1227 q 208 1246 200 1236 q 218 1279 218 1261 q 201 1324 218 1308 q 159 1342 181 1342 q 109 1314 128 1342 q 100 1291 102 1303 q 99 1249 99 1283 l 12 1249 l 12 1276 q 57 1373 12 1331 q 161 1412 99 1412 q 263 1374 224 1412 q 305 1278 305 1333 z "},"Ĩ":{"ha":313,"x_min":-74,"x_max":405,"o":"m 105 0 l 105 1028 l 208 1028 l 208 0 l 105 0 m 405 1171 q 269 1117 332 1117 q 212 1126 241 1117 q 161 1145 192 1131 l 115 1164 q 68 1174 89 1174 q -25 1132 19 1174 l -74 1202 q 71 1260 -12 1260 q 126 1251 98 1260 q 176 1232 145 1245 q 181 1229 177 1230 q 187 1226 185 1227 q 199 1221 194 1223 l 221 1212 q 268 1203 247 1203 q 313 1215 290 1203 l 345 1232 l 355 1239 l 405 1171 z "},"Ị":{"ha":313,"x_min":105,"x_max":212,"o":"m 105 0 l 105 1028 l 208 1028 l 208 0 l 105 0 m 109 -261 l 109 -85 l 212 -85 l 212 -261 l 109 -261 z "},"Ò":{"ha":1206,"x_min":60,"x_max":1147,"o":"m 1147 514 q 985 136 1147 293 q 603 -18 825 -18 q 223 135 385 -18 q 60 509 60 291 q 219 890 60 732 q 603 1046 378 1046 q 985 891 825 1046 q 1147 514 1147 735 m 1044 513 q 914 823 1044 694 q 603 953 784 953 q 291 822 420 953 q 163 509 163 691 q 294 203 163 331 q 603 75 425 75 q 913 203 783 75 q 1044 513 1044 332 m 713 1086 l 437 1235 l 482 1318 l 758 1166 l 713 1086 z "},"Ó":{"ha":1206,"x_min":60,"x_max":1147,"o":"m 1147 514 q 985 136 1147 293 q 603 -18 825 -18 q 223 135 385 -18 q 60 509 60 291 q 219 890 60 732 q 603 1046 378 1046 q 985 891 825 1046 q 1147 514 1147 735 m 1044 513 q 914 823 1044 694 q 603 953 784 953 q 291 822 420 953 q 163 509 163 691 q 294 203 163 331 q 603 75 425 75 q 913 203 783 75 q 1044 513 1044 332 m 553 1086 l 507 1166 l 783 1318 l 828 1235 l 553 1086 z "},"Ỏ":{"ha":1206,"x_min":60,"x_max":1147,"o":"m 1147 514 q 985 136 1147 293 q 603 -18 825 -18 q 223 135 385 -18 q 60 509 60 291 q 219 890 60 732 q 603 1046 378 1046 q 985 891 825 1046 q 1147 514 1147 735 m 1044 513 q 914 823 1044 694 q 603 953 784 953 q 291 822 420 953 q 163 509 163 691 q 294 203 163 331 q 603 75 425 75 q 913 203 783 75 q 1044 513 1044 332 m 750 1278 q 731 1217 750 1246 q 715 1198 726 1209 l 707 1188 l 679 1161 q 663 1141 671 1152 q 649 1082 651 1122 l 563 1082 l 563 1100 q 582 1167 563 1135 q 600 1192 587 1177 q 618 1209 606 1198 l 636 1227 q 652 1246 645 1236 q 663 1279 663 1261 q 646 1324 663 1308 q 604 1342 626 1342 q 554 1314 573 1342 q 545 1291 547 1303 q 544 1249 544 1283 l 456 1249 l 456 1276 q 502 1373 456 1331 q 606 1412 544 1412 q 708 1374 669 1412 q 750 1278 750 1333 z "},"Õ":{"ha":1206,"x_min":60,"x_max":1147,"o":"m 1147 514 q 985 136 1147 293 q 603 -18 825 -18 q 223 135 385 -18 q 60 509 60 291 q 219 890 60 732 q 603 1046 378 1046 q 985 891 825 1046 q 1147 514 1147 735 m 1044 513 q 914 823 1044 694 q 603 953 784 953 q 291 822 420 953 q 163 509 163 691 q 294 203 163 331 q 603 75 425 75 q 913 203 783 75 q 1044 513 1044 332 m 843 1171 q 707 1117 770 1117 q 649 1126 679 1117 q 599 1145 629 1131 l 552 1164 q 505 1174 527 1174 q 412 1132 456 1174 l 364 1202 q 509 1260 427 1260 q 564 1251 535 1260 q 613 1232 583 1245 q 619 1229 615 1230 q 625 1226 623 1227 q 636 1221 631 1223 l 659 1212 q 705 1203 684 1203 q 751 1215 727 1203 l 783 1232 l 793 1239 l 843 1171 z "},"Ọ":{"ha":1206,"x_min":60,"x_max":1147,"o":"m 1147 514 q 985 136 1147 293 q 603 -18 825 -18 q 223 135 385 -18 q 60 509 60 291 q 219 890 60 732 q 603 1046 378 1046 q 985 891 825 1046 q 1147 514 1147 735 m 1044 513 q 914 823 1044 694 q 603 953 784 953 q 291 822 420 953 q 163 509 163 691 q 294 203 163 331 q 603 75 425 75 q 913 203 783 75 q 1044 513 1044 332 m 552 -261 l 552 -85 l 655 -85 l 655 -261 l 552 -261 z "},"Ô":{"ha":1206,"x_min":60,"x_max":1147,"o":"m 1147 514 q 985 136 1147 293 q 603 -18 825 -18 q 223 135 385 -18 q 60 509 60 291 q 219 890 60 732 q 603 1046 378 1046 q 985 891 825 1046 q 1147 514 1147 735 m 1044 513 q 914 823 1044 694 q 603 953 784 953 q 291 822 420 953 q 163 509 163 691 q 294 203 163 331 q 603 75 425 75 q 913 203 783 75 q 1044 513 1044 332 m 726 1114 l 607 1215 l 485 1114 l 358 1114 l 559 1287 l 651 1287 l 850 1114 l 726 1114 z "},"Ồ":{"ha":1206,"x_min":60,"x_max":1147,"o":"m 1147 514 q 985 136 1147 293 q 603 -18 825 -18 q 223 135 385 -18 q 60 509 60 291 q 219 890 60 732 q 603 1046 378 1046 q 985 891 825 1046 q 1147 514 1147 735 m 1044 513 q 914 823 1044 694 q 603 953 784 953 q 291 822 420 953 q 163 509 163 691 q 294 203 163 331 q 603 75 425 75 q 913 203 783 75 q 1044 513 1044 332 m 760 1263 l 485 1412 l 530 1495 l 806 1343 l 760 1263 m 726 1114 l 607 1215 l 485 1114 l 358 1114 l 559 1287 l 652 1287 l 850 1114 l 726 1114 z "},"Ố":{"ha":1206,"x_min":60,"x_max":1147,"o":"m 1147 514 q 985 136 1147 293 q 603 -18 825 -18 q 223 135 385 -18 q 60 509 60 291 q 219 890 60 732 q 603 1046 378 1046 q 985 891 825 1046 q 1147 514 1147 735 m 1044 513 q 914 823 1044 694 q 603 953 784 953 q 291 822 420 953 q 163 509 163 691 q 294 203 163 331 q 603 75 425 75 q 913 203 783 75 q 1044 513 1044 332 m 785 1202 l 739 1282 l 1015 1434 l 1060 1351 l 785 1202 m 726 1114 l 607 1215 l 485 1114 l 358 1114 l 559 1287 l 652 1287 l 850 1114 l 726 1114 z "},"Ổ":{"ha":1206,"x_min":60,"x_max":1147,"o":"m 1147 514 q 985 136 1147 293 q 603 -18 825 -18 q 223 135 385 -18 q 60 509 60 291 q 219 890 60 732 q 603 1046 378 1046 q 985 891 825 1046 q 1147 514 1147 735 m 1044 513 q 914 823 1044 694 q 603 953 784 953 q 291 822 420 953 q 163 509 163 691 q 294 203 163 331 q 603 75 425 75 q 913 203 783 75 q 1044 513 1044 332 m 907 1455 q 888 1394 907 1423 q 872 1375 883 1386 l 863 1365 l 836 1338 q 820 1318 827 1329 q 806 1259 808 1299 l 720 1259 l 720 1277 q 739 1344 720 1312 q 757 1369 744 1354 q 774 1386 762 1375 l 793 1404 q 809 1423 802 1413 q 820 1456 820 1438 q 802 1501 820 1485 q 761 1519 783 1519 q 711 1491 730 1519 q 702 1468 704 1480 q 701 1426 701 1460 l 613 1426 l 613 1453 q 659 1550 613 1508 q 762 1589 701 1589 q 865 1551 825 1589 q 907 1455 907 1510 m 726 1114 l 607 1215 l 485 1114 l 358 1114 l 559 1287 l 651 1287 l 850 1114 l 726 1114 z "},"Ỗ":{"ha":1206,"x_min":60,"x_max":1147,"o":"m 1147 514 q 985 136 1147 293 q 603 -18 825 -18 q 223 135 385 -18 q 60 509 60 291 q 219 890 60 732 q 603 1046 378 1046 q 985 891 825 1046 q 1147 514 1147 735 m 1044 513 q 914 823 1044 694 q 603 953 784 953 q 291 822 420 953 q 163 509 163 691 q 294 203 163 331 q 603 75 425 75 q 913 203 783 75 q 1044 513 1044 332 m 918 1354 q 782 1301 845 1301 q 724 1310 754 1301 q 674 1329 705 1315 l 627 1348 q 581 1358 602 1358 q 488 1316 532 1358 l 439 1385 q 584 1444 502 1444 q 640 1434 610 1444 q 688 1415 659 1429 q 694 1413 690 1414 q 700 1410 698 1411 q 711 1404 707 1407 l 734 1396 q 781 1387 760 1387 q 827 1398 802 1387 l 858 1416 l 868 1423 l 918 1354 m 726 1114 l 607 1215 l 485 1114 l 358 1114 l 559 1287 l 652 1287 l 850 1114 l 726 1114 z "},"Ộ":{"ha":1206,"x_min":60,"x_max":1147,"o":"m 1147 514 q 985 136 1147 293 q 603 -18 825 -18 q 223 135 385 -18 q 60 509 60 291 q 219 890 60 732 q 603 1046 378 1046 q 985 891 825 1046 q 1147 514 1147 735 m 1044 513 q 914 823 1044 694 q 603 953 784 953 q 291 822 420 953 q 163 509 163 691 q 294 203 163 331 q 603 75 425 75 q 913 203 783 75 q 1044 513 1044 332 m 552 -261 l 552 -85 l 655 -85 l 655 -261 l 552 -261 m 726 1114 l 607 1215 l 485 1114 l 358 1114 l 559 1287 l 651 1287 l 850 1114 l 726 1114 z "},"Ù":{"ha":909,"x_min":104,"x_max":804,"o":"m 804 387 q 795 278 804 330 q 765 174 785 218 q 454 -18 675 -18 q 142 174 232 -18 q 113 278 122 218 q 104 387 104 330 l 104 1028 l 207 1028 l 207 387 q 214 292 207 337 q 241 201 222 235 q 454 75 311 75 q 666 201 597 75 q 694 292 685 235 q 701 387 701 337 l 701 1028 l 804 1028 l 804 387 m 536 1086 l 260 1235 l 305 1318 l 582 1166 l 536 1086 z "},"Ú":{"ha":909,"x_min":104,"x_max":804,"o":"m 804 387 q 795 278 804 330 q 765 174 785 218 q 454 -18 675 -18 q 142 174 232 -18 q 113 278 122 218 q 104 387 104 330 l 104 1028 l 207 1028 l 207 387 q 214 292 207 337 q 241 201 222 235 q 454 75 311 75 q 666 201 597 75 q 694 292 685 235 q 701 387 701 337 l 701 1028 l 804 1028 l 804 387 m 376 1086 l 330 1166 l 606 1318 l 651 1235 l 376 1086 z "},"Ủ":{"ha":909,"x_min":104,"x_max":804,"o":"m 804 387 q 795 278 804 330 q 765 174 785 218 q 454 -18 675 -18 q 142 174 232 -18 q 113 278 122 218 q 104 387 104 330 l 104 1028 l 207 1028 l 207 387 q 214 292 207 337 q 241 201 222 235 q 454 75 311 75 q 666 201 597 75 q 694 292 685 235 q 701 387 701 337 l 701 1028 l 804 1028 l 804 387 m 593 1278 q 574 1217 593 1246 q 559 1198 570 1209 l 550 1188 l 522 1161 q 507 1141 514 1152 q 492 1082 494 1122 l 406 1082 l 406 1100 q 425 1167 406 1135 q 444 1192 431 1177 q 461 1209 449 1198 l 479 1227 q 496 1246 488 1236 q 507 1279 507 1261 q 489 1324 507 1308 q 448 1342 469 1342 q 397 1314 416 1342 q 389 1291 391 1303 q 387 1249 387 1283 l 300 1249 l 300 1276 q 345 1373 300 1331 q 449 1412 387 1412 q 551 1374 512 1412 q 593 1278 593 1333 z "},"Ũ":{"ha":909,"x_min":104,"x_max":804,"o":"m 804 387 q 795 278 804 330 q 765 174 785 218 q 454 -18 675 -18 q 142 174 232 -18 q 113 278 122 218 q 104 387 104 330 l 104 1028 l 207 1028 l 207 387 q 214 292 207 337 q 241 201 222 235 q 454 75 311 75 q 666 201 597 75 q 694 292 685 235 q 701 387 701 337 l 701 1028 l 804 1028 l 804 387 m 686 1171 q 550 1117 613 1117 q 492 1126 522 1117 q 442 1145 473 1131 l 395 1164 q 349 1174 370 1174 q 256 1132 300 1174 l 208 1202 q 352 1260 270 1260 q 408 1251 378 1260 q 456 1232 427 1245 q 463 1229 458 1230 q 468 1226 466 1227 q 479 1221 475 1223 l 503 1212 q 549 1203 528 1203 q 595 1215 570 1203 l 626 1232 l 636 1239 l 686 1171 z "},"Ụ":{"ha":909,"x_min":104,"x_max":804,"o":"m 804 387 q 795 278 804 330 q 765 174 785 218 q 454 -18 675 -18 q 142 174 232 -18 q 113 278 122 218 q 104 387 104 330 l 104 1028 l 207 1028 l 207 387 q 214 292 207 337 q 241 201 222 235 q 454 75 311 75 q 666 201 597 75 q 694 292 685 235 q 701 387 701 337 l 701 1028 l 804 1028 l 804 387 m 402 -261 l 402 -85 l 505 -85 l 505 -261 l 402 -261 z "},"Ư":{"ha":909,"x_min":104,"x_max":917,"o":"m 804 911 l 804 387 q 795 278 804 330 q 764 174 785 218 q 454 -18 675 -18 q 142 174 232 -18 q 112 278 122 218 q 104 387 104 330 l 104 1028 l 206 1028 l 206 387 q 213 292 206 337 q 241 201 222 235 q 454 75 311 75 q 666 201 597 75 q 694 292 685 235 q 701 387 701 337 l 701 1028 l 804 1028 l 804 1004 q 833 1051 829 1023 l 789 1051 l 789 1173 l 917 1173 l 917 1047 q 900 992 912 1014 q 870 955 888 970 q 840 932 853 940 q 804 911 827 924 z "},"Ừ":{"ha":909,"x_min":104,"x_max":918,"o":"m 536 1086 l 260 1235 l 305 1318 l 582 1166 l 536 1086 m 804 911 l 804 387 q 795 278 804 330 q 765 174 786 218 q 454 -18 676 -18 q 143 174 233 -18 q 113 278 123 218 q 104 387 104 330 l 104 1028 l 207 1028 l 207 387 q 214 292 207 337 q 241 201 223 235 q 454 75 311 75 q 667 201 597 75 q 694 292 686 235 q 701 387 701 337 l 701 1028 l 804 1028 l 804 1004 q 833 1051 830 1023 l 789 1051 l 789 1173 l 918 1173 l 918 1047 q 901 992 913 1014 q 871 955 888 970 q 841 932 854 940 q 804 911 828 924 z "},"Ứ":{"ha":909,"x_min":104,"x_max":918,"o":"m 376 1086 l 330 1166 l 606 1318 l 651 1235 l 376 1086 m 804 911 l 804 387 q 795 278 804 330 q 765 174 786 218 q 454 -18 676 -18 q 143 174 233 -18 q 113 278 123 218 q 104 387 104 330 l 104 1028 l 207 1028 l 207 387 q 214 292 207 337 q 241 201 223 235 q 454 75 311 75 q 667 201 597 75 q 694 292 686 235 q 701 387 701 337 l 701 1028 l 804 1028 l 804 1004 q 833 1051 830 1023 l 789 1051 l 789 1173 l 918 1173 l 918 1047 q 901 992 913 1014 q 871 955 888 970 q 841 932 854 940 q 804 911 828 924 z "},"Ử":{"ha":909,"x_min":104,"x_max":917,"o":"m 593 1278 q 574 1217 593 1246 q 558 1198 569 1209 l 549 1188 l 522 1161 q 506 1141 513 1152 q 492 1082 494 1122 l 406 1082 l 406 1100 q 425 1167 406 1135 q 443 1192 430 1177 q 460 1209 448 1198 l 479 1227 q 495 1246 488 1236 q 506 1279 506 1261 q 488 1324 506 1308 q 447 1342 469 1342 q 397 1314 416 1342 q 388 1291 390 1303 q 387 1249 387 1283 l 299 1249 l 299 1276 q 345 1373 299 1331 q 448 1412 387 1412 q 551 1374 511 1412 q 593 1278 593 1333 m 804 911 l 804 387 q 795 278 804 330 q 764 174 785 218 q 454 -18 675 -18 q 142 174 232 -18 q 112 278 122 218 q 104 387 104 330 l 104 1028 l 206 1028 l 206 387 q 213 292 206 337 q 241 201 222 235 q 454 75 311 75 q 666 201 597 75 q 694 292 685 235 q 701 387 701 337 l 701 1028 l 804 1028 l 804 1004 q 833 1051 829 1023 l 789 1051 l 789 1173 l 917 1173 l 917 1047 q 900 992 912 1014 q 870 955 888 970 q 840 932 853 940 q 804 911 827 924 z "},"Ữ":{"ha":909,"x_min":104,"x_max":917,"o":"m 686 1171 q 550 1117 613 1117 q 492 1126 522 1117 q 442 1145 473 1131 l 395 1164 q 349 1174 370 1174 q 256 1132 300 1174 l 208 1202 q 352 1260 270 1260 q 408 1251 378 1260 q 456 1232 427 1245 q 463 1229 458 1230 q 468 1226 466 1227 q 479 1221 475 1223 l 503 1212 q 549 1203 528 1203 q 595 1215 570 1203 l 626 1232 l 636 1239 l 686 1171 m 804 911 l 804 387 q 795 278 804 330 q 764 174 785 218 q 454 -18 675 -18 q 142 174 232 -18 q 112 278 122 218 q 104 387 104 330 l 104 1028 l 206 1028 l 206 387 q 213 292 206 337 q 241 201 222 235 q 454 75 311 75 q 666 201 597 75 q 694 292 685 235 q 701 387 701 337 l 701 1028 l 804 1028 l 804 1004 q 833 1051 829 1023 l 789 1051 l 789 1173 l 917 1173 l 917 1047 q 900 992 912 1014 q 870 955 888 970 q 840 932 853 940 q 804 911 827 924 z "},"Ự":{"ha":909,"x_min":104,"x_max":917,"o":"m 402 -261 l 402 -85 l 505 -85 l 505 -261 l 402 -261 m 804 911 l 804 387 q 795 278 804 330 q 764 174 785 218 q 454 -18 675 -18 q 142 174 232 -18 q 112 278 122 218 q 104 387 104 330 l 104 1028 l 206 1028 l 206 387 q 213 292 206 337 q 241 201 222 235 q 454 75 311 75 q 666 201 597 75 q 694 292 685 235 q 701 387 701 337 l 701 1028 l 804 1028 l 804 1004 q 833 1051 829 1023 l 789 1051 l 789 1173 l 917 1173 l 917 1047 q 900 992 912 1014 q 870 955 888 970 q 840 932 853 940 q 804 911 827 924 z "},"Ơ":{"ha":1206,"x_min":60,"x_max":1147,"o":"m 1044 513 q 914 823 1044 694 q 603 953 784 953 q 291 822 420 953 q 163 509 163 691 q 294 203 163 331 q 603 75 425 75 q 913 203 783 75 q 1044 513 1044 332 m 960 914 q 985 891 973 903 q 1147 514 1147 735 q 985 136 1147 293 q 603 -18 825 -18 q 223 135 385 -18 q 60 509 60 291 q 219 890 60 732 q 603 1046 378 1046 q 890 966 762 1046 q 913 977 905 973 q 954 1003 927 983 q 983 1051 980 1023 l 939 1051 l 939 1173 l 1067 1173 l 1067 1047 q 1050 992 1063 1014 q 1021 955 1038 970 q 991 932 1004 940 q 960 914 980 924 z "},"Ờ":{"ha":1206,"x_min":60,"x_max":1147,"o":"m 1044 513 q 914 823 1044 694 q 603 953 784 953 q 291 822 420 953 q 163 509 163 691 q 294 203 163 331 q 603 75 425 75 q 913 203 783 75 q 1044 513 1044 332 m 713 1086 l 437 1235 l 482 1318 l 758 1166 l 713 1086 m 960 914 q 985 891 973 903 q 1147 514 1147 735 q 985 136 1147 293 q 603 -18 825 -18 q 223 135 385 -18 q 60 509 60 291 q 219 890 60 732 q 603 1046 378 1046 q 890 966 762 1046 q 913 977 905 973 q 954 1003 927 983 q 983 1051 980 1023 l 939 1051 l 939 1173 l 1067 1173 l 1067 1047 q 1050 992 1063 1014 q 1021 955 1038 970 q 991 932 1004 940 q 960 914 980 924 z "},"Ớ":{"ha":1206,"x_min":60,"x_max":1147,"o":"m 1044 513 q 914 823 1044 694 q 603 953 784 953 q 291 822 420 953 q 163 509 163 691 q 294 203 163 331 q 603 75 425 75 q 913 203 783 75 q 1044 513 1044 332 m 553 1086 l 507 1166 l 783 1318 l 828 1235 l 553 1086 m 960 914 q 985 891 973 903 q 1147 514 1147 735 q 985 136 1147 293 q 603 -18 825 -18 q 223 135 385 -18 q 60 509 60 291 q 219 890 60 732 q 603 1046 378 1046 q 890 966 762 1046 q 913 977 905 973 q 954 1003 927 983 q 983 1051 980 1023 l 939 1051 l 939 1173 l 1067 1173 l 1067 1047 q 1050 992 1063 1014 q 1021 955 1038 970 q 991 932 1004 940 q 960 914 980 924 z "},"Ở":{"ha":1206,"x_min":60,"x_max":1147,"o":"m 1044 513 q 914 823 1044 694 q 603 953 784 953 q 291 822 420 953 q 163 509 163 691 q 294 203 163 331 q 603 75 425 75 q 913 203 783 75 q 1044 513 1044 332 m 750 1278 q 731 1217 750 1246 q 715 1198 726 1209 l 707 1188 l 679 1161 q 663 1141 671 1152 q 649 1082 651 1122 l 563 1082 l 563 1100 q 582 1167 563 1135 q 600 1192 587 1177 q 618 1209 606 1198 l 636 1227 q 652 1246 645 1236 q 663 1279 663 1261 q 646 1324 663 1308 q 604 1342 626 1342 q 554 1314 573 1342 q 545 1291 547 1303 q 544 1249 544 1283 l 456 1249 l 456 1276 q 502 1373 456 1331 q 606 1412 544 1412 q 708 1374 669 1412 q 750 1278 750 1333 m 960 914 q 985 891 973 903 q 1147 514 1147 735 q 985 136 1147 293 q 603 -18 825 -18 q 223 135 385 -18 q 60 509 60 291 q 219 890 60 732 q 603 1046 378 1046 q 890 966 762 1046 q 913 977 905 973 q 954 1003 927 983 q 983 1051 980 1023 l 939 1051 l 939 1173 l 1067 1173 l 1067 1047 q 1050 992 1063 1014 q 1021 955 1038 970 q 991 932 1004 940 q 960 914 980 924 z "},"Ỡ":{"ha":1206,"x_min":60,"x_max":1147,"o":"m 1044 513 q 914 823 1044 694 q 603 953 784 953 q 291 822 420 953 q 163 509 163 691 q 294 203 163 331 q 603 75 425 75 q 913 203 783 75 q 1044 513 1044 332 m 843 1171 q 707 1117 770 1117 q 649 1126 679 1117 q 599 1145 629 1131 l 552 1164 q 505 1174 527 1174 q 412 1132 456 1174 l 364 1202 q 509 1260 427 1260 q 564 1251 535 1260 q 613 1232 583 1245 q 619 1229 615 1230 q 625 1226 623 1227 q 636 1221 631 1223 l 659 1212 q 705 1203 684 1203 q 751 1215 727 1203 l 783 1232 l 793 1239 l 843 1171 m 960 914 q 985 891 973 903 q 1147 514 1147 735 q 985 136 1147 293 q 603 -18 825 -18 q 223 135 385 -18 q 60 509 60 291 q 219 890 60 732 q 603 1046 378 1046 q 890 966 762 1046 q 913 977 905 973 q 954 1003 927 983 q 983 1051 980 1023 l 939 1051 l 939 1173 l 1067 1173 l 1067 1047 q 1050 992 1063 1014 q 1021 955 1038 970 q 991 932 1004 940 q 960 914 980 924 z "},"Ợ":{"ha":1206,"x_min":60,"x_max":1147,"o":"m 1044 513 q 914 823 1044 694 q 603 953 784 953 q 291 822 420 953 q 163 509 163 691 q 294 203 163 331 q 603 75 425 75 q 913 203 783 75 q 1044 513 1044 332 m 552 -261 l 552 -85 l 655 -85 l 655 -261 l 552 -261 m 960 914 q 985 891 973 903 q 1147 514 1147 735 q 985 136 1147 293 q 603 -18 825 -18 q 223 135 385 -18 q 60 509 60 291 q 219 890 60 732 q 603 1046 378 1046 q 890 966 762 1046 q 913 977 905 973 q 954 1003 927 983 q 983 1051 980 1023 l 939 1051 l 939 1173 l 1067 1173 l 1067 1047 q 1050 992 1063 1014 q 1021 955 1038 970 q 991 932 1004 940 q 960 914 980 924 z "},"Ỳ":{"ha":822,"x_min":1,"x_max":822,"o":"m 461 343 l 461 0 l 358 0 l 358 343 l 1 1028 l 115 1028 l 408 452 l 709 1028 l 822 1028 l 461 343 m 536 1086 l 260 1235 l 305 1318 l 582 1166 l 536 1086 z "},"Ý":{"ha":822,"x_min":1,"x_max":822,"o":"m 461 343 l 461 0 l 358 0 l 358 343 l 1 1028 l 115 1028 l 408 452 l 709 1028 l 822 1028 l 461 343 m 333 1086 l 288 1166 l 564 1318 l 608 1235 l 333 1086 z "},"Ỷ":{"ha":822,"x_min":1,"x_max":822,"o":"m 461 343 l 461 0 l 358 0 l 358 343 l 1 1028 l 115 1028 l 408 452 l 709 1028 l 822 1028 l 461 343 m 559 1278 q 540 1217 559 1246 q 524 1198 535 1209 l 515 1188 l 488 1161 q 472 1141 479 1152 q 458 1082 460 1122 l 372 1082 l 372 1100 q 391 1167 372 1135 q 409 1192 396 1177 q 427 1209 414 1198 l 445 1227 q 461 1246 454 1236 q 472 1279 472 1261 q 454 1324 472 1308 q 413 1342 435 1342 q 363 1314 382 1342 q 354 1291 356 1303 q 353 1249 353 1283 l 265 1249 l 265 1276 q 311 1373 265 1331 q 414 1412 353 1412 q 517 1374 477 1412 q 559 1278 559 1333 z "},"Ỹ":{"ha":822,"x_min":1,"x_max":822,"o":"m 461 343 l 461 0 l 358 0 l 358 343 l 1 1028 l 115 1028 l 408 452 l 709 1028 l 822 1028 l 461 343 m 651 1171 q 515 1117 578 1117 q 457 1126 487 1117 q 407 1145 437 1131 l 360 1164 q 313 1174 335 1174 q 220 1132 264 1174 l 172 1202 q 317 1260 235 1260 q 372 1251 343 1260 q 421 1232 391 1245 q 427 1229 423 1230 q 433 1226 431 1227 q 444 1221 439 1223 l 467 1212 q 513 1203 492 1203 q 559 1215 535 1203 l 591 1232 l 601 1239 l 651 1171 z "},"Ỵ":{"ha":822,"x_min":1,"x_max":822,"o":"m 461 343 l 461 0 l 358 0 l 358 343 l 1 1028 l 115 1028 l 408 452 l 709 1028 l 822 1028 l 461 343 m 361 -261 l 361 -85 l 465 -85 l 465 -261 l 361 -261 z "},"à":{"ha":948,"x_min":58,"x_max":863,"o":"m 765 0 l 765 134 l 762 134 q 467 -18 662 -18 q 177 96 295 -18 q 58 382 58 211 q 178 666 58 551 q 467 779 297 779 q 762 627 665 779 l 765 627 l 765 760 l 863 760 l 863 0 l 765 0 m 771 379 q 684 599 771 507 q 467 692 595 692 q 243 602 332 692 q 155 378 155 513 q 244 157 155 245 q 467 69 333 69 q 684 161 595 69 q 771 379 771 251 m 583 860 l 309 1008 l 353 1092 l 629 940 l 583 860 z "},"á":{"ha":948,"x_min":58,"x_max":863,"o":"m 765 0 l 765 134 l 762 134 q 467 -18 662 -18 q 177 96 295 -18 q 58 382 58 211 q 178 666 58 551 q 467 779 297 779 q 762 627 665 779 l 765 627 l 765 760 l 863 760 l 863 0 l 765 0 m 771 379 q 684 599 771 507 q 467 692 595 692 q 243 602 332 692 q 155 378 155 513 q 244 157 155 245 q 467 69 333 69 q 684 161 595 69 q 771 379 771 251 m 368 860 l 322 940 l 599 1092 l 643 1008 l 368 860 z "},"ả":{"ha":948,"x_min":58,"x_max":863,"o":"m 765 0 l 765 134 l 762 134 q 467 -18 662 -18 q 177 96 295 -18 q 58 382 58 211 q 178 666 58 551 q 467 779 297 779 q 762 627 665 779 l 765 627 l 765 760 l 863 760 l 863 0 l 765 0 m 771 379 q 684 599 771 507 q 467 692 595 692 q 243 602 332 692 q 155 378 155 513 q 244 157 155 245 q 467 69 333 69 q 684 161 595 69 q 771 379 771 251 m 613 1039 q 594 978 613 1008 q 578 959 589 970 l 570 949 l 542 922 q 526 902 534 913 q 512 843 514 884 l 426 843 l 426 861 q 445 928 426 896 q 463 953 450 938 q 481 970 469 959 l 499 988 q 515 1007 508 998 q 526 1040 526 1022 q 509 1085 526 1069 q 467 1103 489 1103 q 417 1075 436 1103 q 408 1052 410 1065 q 407 1010 407 1044 l 319 1010 l 319 1037 q 365 1135 319 1092 q 469 1173 407 1173 q 571 1135 532 1173 q 613 1039 613 1094 z "},"ã":{"ha":948,"x_min":58,"x_max":863,"o":"m 765 0 l 765 134 l 762 134 q 467 -18 662 -18 q 177 96 295 -18 q 58 382 58 211 q 178 666 58 551 q 467 779 297 779 q 762 627 665 779 l 765 627 l 765 760 l 863 760 l 863 0 l 765 0 m 771 379 q 684 599 771 507 q 467 692 595 692 q 243 602 332 692 q 155 378 155 513 q 244 157 155 245 q 467 69 333 69 q 684 161 595 69 q 771 379 771 251 m 714 958 q 578 904 641 904 q 520 913 550 904 q 470 932 500 919 l 423 952 q 376 961 397 961 q 283 920 328 961 l 235 989 q 379 1047 297 1047 q 435 1038 406 1047 q 484 1019 454 1032 q 490 1016 486 1018 q 496 1013 494 1015 q 507 1008 503 1010 l 530 999 q 576 990 555 990 q 622 1002 598 990 l 654 1020 l 664 1026 l 714 958 z "},"ạ":{"ha":948,"x_min":58,"x_max":863,"o":"m 765 0 l 765 134 l 762 134 q 467 -18 662 -18 q 177 96 295 -18 q 58 382 58 211 q 178 666 58 551 q 467 779 297 779 q 762 627 665 779 l 765 627 l 765 760 l 863 760 l 863 0 l 765 0 m 771 379 q 684 599 771 507 q 467 692 595 692 q 243 602 332 692 q 155 378 155 513 q 244 157 155 245 q 467 69 333 69 q 684 161 595 69 q 771 379 771 251 m 409 -261 l 409 -85 l 512 -85 l 512 -261 l 409 -261 z "},"â":{"ha":948,"x_min":58,"x_max":863,"o":"m 765 0 l 765 134 l 762 134 q 467 -18 662 -18 q 177 96 295 -18 q 58 382 58 211 q 178 666 58 551 q 467 779 297 779 q 762 627 665 779 l 765 627 l 765 760 l 863 760 l 863 0 l 765 0 m 771 379 q 684 599 771 507 q 467 692 595 692 q 243 602 332 692 q 155 378 155 513 q 244 157 155 245 q 467 69 333 69 q 684 161 595 69 q 771 379 771 251 m 597 888 l 477 989 l 355 888 l 229 888 l 431 1061 l 522 1061 l 721 888 l 597 888 z "},"ầ":{"ha":948,"x_min":58,"x_max":863,"o":"m 765 0 l 765 134 l 762 134 q 467 -18 662 -18 q 177 96 295 -18 q 58 382 58 211 q 178 666 58 551 q 467 779 297 779 q 762 627 665 779 l 765 627 l 765 760 l 863 760 l 863 0 l 765 0 m 771 379 q 684 599 771 507 q 467 692 595 692 q 243 602 332 692 q 155 378 155 513 q 244 157 155 245 q 467 69 333 69 q 684 161 595 69 q 771 379 771 251 m 658 1044 l 383 1192 l 427 1276 l 704 1124 l 658 1044 m 597 888 l 477 989 l 355 888 l 229 888 l 431 1061 l 522 1061 l 721 888 l 597 888 z "},"ấ":{"ha":948,"x_min":58,"x_max":956,"o":"m 765 0 l 765 134 l 762 134 q 467 -18 662 -18 q 177 96 295 -18 q 58 382 58 211 q 178 666 58 551 q 467 779 297 779 q 762 627 665 779 l 765 627 l 765 760 l 863 760 l 863 0 l 765 0 m 771 379 q 684 599 771 507 q 467 692 595 692 q 243 602 332 692 q 155 378 155 513 q 244 157 155 245 q 467 69 333 69 q 684 161 595 69 q 771 379 771 251 m 682 982 l 635 1062 l 912 1214 l 956 1131 l 682 982 m 597 888 l 477 989 l 355 888 l 229 888 l 431 1061 l 522 1061 l 721 888 l 597 888 z "},"ẩ":{"ha":948,"x_min":58,"x_max":863,"o":"m 765 0 l 765 134 l 762 134 q 467 -18 662 -18 q 177 96 295 -18 q 58 382 58 211 q 178 666 58 551 q 467 779 297 779 q 762 627 665 779 l 765 627 l 765 760 l 863 760 l 863 0 l 765 0 m 771 379 q 684 599 771 507 q 467 692 595 692 q 243 602 332 692 q 155 378 155 513 q 244 157 155 245 q 467 69 333 69 q 684 161 595 69 q 771 379 771 251 m 597 888 l 477 989 l 355 888 l 229 888 l 431 1061 l 522 1061 l 721 888 l 597 888 m 804 1202 q 785 1141 804 1171 q 769 1122 780 1134 l 760 1113 l 732 1086 q 717 1065 724 1076 q 703 1006 705 1047 l 616 1006 l 616 1025 q 635 1092 616 1059 q 654 1116 641 1101 q 671 1134 659 1122 l 690 1152 q 706 1171 699 1161 q 717 1204 717 1185 q 699 1249 717 1232 q 658 1267 680 1267 q 608 1238 627 1267 q 599 1215 601 1228 q 597 1174 597 1208 l 510 1174 l 510 1200 q 555 1298 510 1255 q 659 1337 597 1337 q 762 1299 722 1337 q 804 1202 804 1257 z "},"ẫ":{"ha":948,"x_min":58,"x_max":863,"o":"m 765 0 l 765 134 l 762 134 q 467 -18 662 -18 q 177 96 295 -18 q 58 382 58 211 q 178 666 58 551 q 467 779 297 779 q 762 627 665 779 l 765 627 l 765 760 l 863 760 l 863 0 l 765 0 m 771 379 q 684 599 771 507 q 467 692 595 692 q 243 602 332 692 q 155 378 155 513 q 244 157 155 245 q 467 69 333 69 q 684 161 595 69 q 771 379 771 251 m 762 1135 q 625 1081 688 1081 q 568 1090 597 1081 q 517 1109 548 1096 l 471 1129 q 424 1138 445 1138 q 331 1097 375 1138 l 282 1166 q 427 1224 345 1224 q 482 1215 454 1224 q 532 1196 501 1209 q 537 1193 533 1195 q 543 1190 541 1192 q 555 1185 550 1187 l 577 1176 q 624 1167 603 1167 q 669 1179 646 1167 l 701 1197 l 711 1203 l 762 1135 m 597 888 l 477 989 l 355 888 l 229 888 l 431 1061 l 522 1061 l 721 888 l 597 888 z "},"ậ":{"ha":948,"x_min":58,"x_max":863,"o":"m 765 0 l 765 134 l 762 134 q 467 -18 662 -18 q 177 96 295 -18 q 58 382 58 211 q 178 666 58 551 q 467 779 297 779 q 762 627 665 779 l 765 627 l 765 760 l 863 760 l 863 0 l 765 0 m 771 379 q 684 599 771 507 q 467 692 595 692 q 243 602 332 692 q 155 378 155 513 q 244 157 155 245 q 467 69 333 69 q 684 161 595 69 q 771 379 771 251 m 409 -261 l 409 -85 l 512 -85 l 512 -261 l 409 -261 m 597 888 l 477 989 l 355 888 l 229 888 l 431 1061 l 522 1061 l 721 888 l 597 888 z "},"ă":{"ha":948,"x_min":58,"x_max":863,"o":"m 765 0 l 765 134 l 762 134 q 467 -18 662 -18 q 177 96 295 -18 q 58 382 58 211 q 178 666 58 551 q 467 779 297 779 q 762 627 665 779 l 765 627 l 765 760 l 863 760 l 863 0 l 765 0 m 771 379 q 684 599 771 507 q 467 692 595 692 q 243 602 332 692 q 155 378 155 513 q 244 157 155 245 q 467 69 333 69 q 684 161 595 69 q 771 379 771 251 m 724 1011 q 627 899 696 936 q 481 868 568 868 q 335 899 395 868 q 239 1011 267 935 l 330 1011 q 481 947 376 947 q 566 962 527 947 q 634 1011 610 978 l 724 1011 z "},"ằ":{"ha":948,"x_min":58,"x_max":863,"o":"m 765 0 l 765 134 l 762 134 q 467 -18 662 -18 q 177 96 295 -18 q 58 382 58 211 q 178 666 58 551 q 467 779 297 779 q 762 627 665 779 l 765 627 l 765 760 l 863 760 l 863 0 l 765 0 m 771 379 q 684 599 771 507 q 467 692 595 692 q 243 602 332 692 q 155 378 155 513 q 244 157 155 245 q 467 69 333 69 q 684 161 595 69 q 771 379 771 251 m 556 1044 l 281 1192 l 326 1276 l 602 1124 l 556 1044 m 724 1011 q 627 899 696 936 q 481 868 568 868 q 335 899 395 868 q 239 1011 267 935 l 330 1011 q 481 947 376 947 q 566 962 527 947 q 634 1011 610 978 l 724 1011 z "},"ắ":{"ha":948,"x_min":58,"x_max":863,"o":"m 765 0 l 765 134 l 762 134 q 467 -18 662 -18 q 177 96 295 -18 q 58 382 58 211 q 178 666 58 551 q 467 779 297 779 q 762 627 665 779 l 765 627 l 765 760 l 863 760 l 863 0 l 765 0 m 771 379 q 684 599 771 507 q 467 692 595 692 q 243 602 332 692 q 155 378 155 513 q 244 157 155 245 q 467 69 333 69 q 684 161 595 69 q 771 379 771 251 m 477 1002 l 431 1082 l 707 1234 l 751 1151 l 477 1002 m 724 1011 q 627 899 696 936 q 481 868 568 868 q 335 899 395 868 q 239 1011 267 935 l 330 1011 q 481 947 376 947 q 566 962 527 947 q 634 1011 610 978 l 724 1011 z "},"ẳ":{"ha":948,"x_min":58,"x_max":863,"o":"m 765 0 l 765 134 l 762 134 q 467 -18 662 -18 q 177 96 295 -18 q 58 382 58 211 q 178 666 58 551 q 467 779 297 779 q 762 627 665 779 l 765 627 l 765 760 l 863 760 l 863 0 l 765 0 m 771 379 q 684 599 771 507 q 467 692 595 692 q 243 602 332 692 q 155 378 155 513 q 244 157 155 245 q 467 69 333 69 q 684 161 595 69 q 771 379 771 251 m 633 1216 q 614 1155 633 1185 q 599 1136 610 1147 l 590 1126 l 562 1099 q 547 1079 554 1090 q 532 1020 534 1061 l 446 1020 l 446 1038 q 465 1105 446 1073 q 484 1130 471 1115 q 501 1147 489 1136 l 519 1165 q 536 1184 528 1175 q 547 1217 547 1199 q 529 1262 547 1246 q 488 1280 509 1280 q 437 1252 456 1280 q 429 1229 431 1242 q 427 1187 427 1221 l 340 1187 l 340 1214 q 385 1312 340 1269 q 489 1350 427 1350 q 591 1312 552 1350 q 633 1216 633 1271 m 724 1011 q 627 899 696 936 q 481 868 568 868 q 335 899 395 868 q 239 1011 267 935 l 330 1011 q 481 947 376 947 q 566 962 527 947 q 634 1011 610 978 l 724 1011 z "},"ẵ":{"ha":948,"x_min":58,"x_max":863,"o":"m 765 0 l 765 134 l 762 134 q 467 -18 662 -18 q 177 96 295 -18 q 58 382 58 211 q 178 666 58 551 q 467 779 297 779 q 762 627 665 779 l 765 627 l 765 760 l 863 760 l 863 0 l 765 0 m 771 379 q 684 599 771 507 q 467 692 595 692 q 243 602 332 692 q 155 378 155 513 q 244 157 155 245 q 467 69 333 69 q 684 161 595 69 q 771 379 771 251 m 762 1135 q 625 1081 688 1081 q 568 1090 597 1081 q 517 1109 548 1096 l 471 1129 q 424 1138 445 1138 q 331 1097 375 1138 l 282 1166 q 427 1224 345 1224 q 482 1215 454 1224 q 532 1196 501 1209 q 537 1193 533 1195 q 543 1190 541 1192 q 555 1185 550 1187 l 577 1176 q 624 1167 603 1167 q 669 1179 646 1167 l 701 1197 l 711 1203 l 762 1135 m 724 1011 q 627 899 696 936 q 481 868 568 868 q 335 899 395 868 q 239 1011 267 935 l 330 1011 q 481 947 376 947 q 566 962 527 947 q 634 1011 610 978 l 724 1011 z "},"ặ":{"ha":948,"x_min":58,"x_max":863,"o":"m 765 0 l 765 134 l 762 134 q 467 -18 662 -18 q 177 96 295 -18 q 58 382 58 211 q 178 666 58 551 q 467 779 297 779 q 762 627 665 779 l 765 627 l 765 760 l 863 760 l 863 0 l 765 0 m 771 379 q 684 599 771 507 q 467 692 595 692 q 243 602 332 692 q 155 378 155 513 q 244 157 155 245 q 467 69 333 69 q 684 161 595 69 q 771 379 771 251 m 409 -261 l 409 -85 l 512 -85 l 512 -261 l 409 -261 m 724 1011 q 627 899 696 936 q 481 868 568 868 q 335 899 395 868 q 239 1011 267 935 l 330 1011 q 481 947 376 947 q 566 962 527 947 q 634 1011 610 978 l 724 1011 z "},"è":{"ha":903,"x_min":52,"x_max":845,"o":"m 844 345 l 152 345 q 246 151 157 233 q 447 69 334 69 q 611 117 536 69 q 719 249 688 166 l 822 249 q 677 56 780 130 q 448 -18 574 -18 q 168 99 284 -18 q 52 379 52 215 q 168 661 52 543 q 447 779 284 779 q 729 658 612 779 q 845 372 845 538 l 844 345 m 745 432 q 644 618 726 545 q 448 692 562 692 q 252 618 336 692 q 152 432 170 545 l 745 432 m 559 860 l 284 1008 l 329 1092 l 605 940 l 559 860 z "},"é":{"ha":903,"x_min":52,"x_max":845,"o":"m 844 345 l 152 345 q 246 151 157 233 q 447 69 334 69 q 611 117 536 69 q 719 249 688 166 l 822 249 q 677 56 780 130 q 448 -18 574 -18 q 168 99 284 -18 q 52 379 52 215 q 168 661 52 543 q 447 779 284 779 q 729 658 612 779 q 845 372 845 538 l 844 345 m 745 432 q 644 618 726 545 q 448 692 562 692 q 252 618 336 692 q 152 432 170 545 l 745 432 m 345 860 l 300 940 l 576 1092 l 621 1008 l 345 860 z "},"ẻ":{"ha":903,"x_min":52,"x_max":845,"o":"m 844 345 l 152 345 q 246 151 157 233 q 447 69 334 69 q 611 117 536 69 q 719 249 688 166 l 822 249 q 677 56 780 130 q 448 -18 574 -18 q 168 99 284 -18 q 52 379 52 215 q 168 661 52 543 q 447 779 284 779 q 729 658 612 779 q 845 372 845 538 l 844 345 m 745 432 q 644 618 726 545 q 448 692 562 692 q 252 618 336 692 q 152 432 170 545 l 745 432 m 585 1039 q 566 978 585 1008 q 551 959 562 970 l 542 949 l 514 922 q 498 902 506 913 q 484 843 486 884 l 398 843 l 398 861 q 417 928 398 896 q 435 953 422 938 q 453 970 441 959 l 471 988 q 488 1007 480 998 q 498 1040 498 1022 q 481 1085 498 1069 q 439 1103 461 1103 q 389 1075 408 1103 q 380 1052 382 1065 q 379 1010 379 1044 l 292 1010 l 292 1037 q 337 1135 292 1092 q 441 1173 379 1173 q 543 1135 504 1173 q 585 1039 585 1094 z "},"ẽ":{"ha":903,"x_min":52,"x_max":845,"o":"m 844 345 l 152 345 q 246 151 157 233 q 447 69 334 69 q 611 117 536 69 q 719 249 688 166 l 822 249 q 677 56 780 130 q 448 -18 574 -18 q 168 99 284 -18 q 52 379 52 215 q 168 661 52 543 q 447 779 284 779 q 729 658 612 779 q 845 372 845 538 l 844 345 m 745 432 q 644 618 726 545 q 448 692 562 692 q 252 618 336 692 q 152 432 170 545 l 745 432 m 688 958 q 552 904 615 904 q 494 913 524 904 q 444 932 475 919 l 397 952 q 351 961 372 961 q 258 920 302 961 l 209 989 q 353 1047 272 1047 q 410 1038 380 1047 q 458 1019 429 1032 q 465 1016 460 1018 q 470 1013 468 1015 q 481 1008 477 1010 l 505 999 q 551 990 530 990 q 597 1002 572 990 l 628 1020 l 638 1026 l 688 958 z "},"ẹ":{"ha":903,"x_min":52,"x_max":845,"o":"m 844 345 l 152 345 q 246 151 157 233 q 447 69 334 69 q 611 117 536 69 q 719 249 688 166 l 822 249 q 677 56 780 130 q 448 -18 574 -18 q 168 99 284 -18 q 52 379 52 215 q 168 661 52 543 q 447 779 284 779 q 729 658 612 779 q 845 372 845 538 l 844 345 m 745 432 q 644 618 726 545 q 448 692 562 692 q 252 618 336 692 q 152 432 170 545 l 745 432 m 397 -261 l 397 -85 l 500 -85 l 500 -261 l 397 -261 z "},"ê":{"ha":903,"x_min":52,"x_max":845,"o":"m 844 345 l 152 345 q 246 151 157 233 q 447 69 334 69 q 611 117 536 69 q 719 249 688 166 l 822 249 q 677 56 780 130 q 448 -18 574 -18 q 168 99 284 -18 q 52 379 52 215 q 168 661 52 543 q 447 779 284 779 q 729 658 612 779 q 845 372 845 538 l 844 345 m 745 432 q 644 618 726 545 q 448 692 562 692 q 252 618 336 692 q 152 432 170 545 l 745 432 m 573 888 l 454 989 l 332 888 l 205 888 l 406 1061 l 498 1061 l 696 888 l 573 888 z "},"ề":{"ha":903,"x_min":52,"x_max":845,"o":"m 844 345 l 152 345 q 246 151 157 233 q 447 69 334 69 q 611 117 536 69 q 719 249 688 166 l 822 249 q 677 56 780 130 q 448 -18 574 -18 q 168 99 284 -18 q 52 379 52 215 q 168 661 52 543 q 447 779 284 779 q 729 658 612 779 q 845 372 845 538 l 844 345 m 745 432 q 644 618 726 545 q 448 692 562 692 q 252 618 336 692 q 152 432 170 545 l 745 432 m 621 1044 l 345 1192 l 390 1276 l 666 1124 l 621 1044 m 573 888 l 454 989 l 332 888 l 205 888 l 406 1061 l 498 1061 l 696 888 l 573 888 z "},"ế":{"ha":903,"x_min":52,"x_max":900,"o":"m 844 345 l 152 345 q 246 151 157 233 q 447 69 334 69 q 611 117 536 69 q 719 249 688 166 l 822 249 q 677 56 780 130 q 448 -18 574 -18 q 168 99 284 -18 q 52 379 52 215 q 168 661 52 543 q 447 779 284 779 q 729 658 612 779 q 845 372 845 538 l 844 345 m 745 432 q 644 618 726 545 q 448 692 562 692 q 252 618 336 692 q 152 432 170 545 l 745 432 m 625 989 l 579 1069 l 855 1221 l 900 1138 l 625 989 m 573 888 l 454 989 l 332 888 l 205 888 l 406 1061 l 498 1061 l 696 888 l 573 888 z "},"ể":{"ha":903,"x_min":52,"x_max":845,"o":"m 844 345 l 152 345 q 246 151 157 233 q 447 69 334 69 q 611 117 536 69 q 719 249 688 166 l 822 249 q 677 56 780 130 q 448 -18 574 -18 q 168 99 284 -18 q 52 379 52 215 q 168 661 52 543 q 447 779 284 779 q 729 658 612 779 q 845 372 845 538 l 844 345 m 745 432 q 644 618 726 545 q 448 692 562 692 q 252 618 336 692 q 152 432 170 545 l 745 432 m 762 1223 q 743 1162 762 1192 q 728 1143 739 1154 l 719 1133 l 691 1106 q 675 1086 683 1097 q 661 1027 663 1067 l 575 1027 l 575 1045 q 594 1112 575 1080 q 612 1137 600 1122 q 630 1154 618 1143 l 648 1172 q 665 1191 657 1181 q 675 1224 675 1206 q 658 1269 675 1253 q 616 1287 638 1287 q 566 1259 585 1287 q 557 1236 559 1249 q 556 1194 556 1228 l 469 1194 l 469 1221 q 514 1318 469 1276 q 618 1357 556 1357 q 720 1319 681 1357 q 762 1223 762 1278 m 573 888 l 454 989 l 332 888 l 205 888 l 406 1061 l 498 1061 l 696 888 l 573 888 z "},"ễ":{"ha":903,"x_min":52,"x_max":845,"o":"m 844 345 l 152 345 q 246 151 157 233 q 447 69 334 69 q 611 117 536 69 q 719 249 688 166 l 822 249 q 677 56 780 130 q 448 -18 574 -18 q 168 99 284 -18 q 52 379 52 215 q 168 661 52 543 q 447 779 284 779 q 729 658 612 779 q 845 372 845 538 l 844 345 m 745 432 q 644 618 726 545 q 448 692 562 692 q 252 618 336 692 q 152 432 170 545 l 745 432 m 770 1128 q 633 1074 696 1074 q 576 1082 606 1074 q 526 1102 556 1088 l 479 1122 q 432 1131 453 1131 q 339 1089 383 1131 l 290 1158 q 435 1217 353 1217 q 491 1208 462 1217 q 540 1188 510 1202 q 546 1185 542 1187 q 551 1183 549 1184 q 563 1178 558 1180 l 586 1168 q 632 1160 611 1160 q 678 1172 654 1160 l 709 1190 l 720 1196 l 770 1128 m 573 888 l 454 989 l 332 888 l 205 888 l 406 1061 l 498 1061 l 696 888 l 573 888 z "},"ệ":{"ha":903,"x_min":52,"x_max":845,"o":"m 844 345 l 152 345 q 246 151 157 233 q 447 69 334 69 q 611 117 536 69 q 719 249 688 166 l 822 249 q 677 56 780 130 q 448 -18 574 -18 q 168 99 284 -18 q 52 379 52 215 q 168 661 52 543 q 447 779 284 779 q 729 658 612 779 q 845 372 845 538 l 844 345 m 745 432 q 644 618 726 545 q 448 692 562 692 q 252 618 336 692 q 152 432 170 545 l 745 432 m 397 -261 l 397 -85 l 500 -85 l 500 -261 l 397 -261 m 573 888 l 454 989 l 332 888 l 205 888 l 406 1061 l 498 1061 l 696 888 l 573 888 z "},"ì":{"ha":277,"x_min":-83,"x_max":238,"o":"m 91 0 l 91 760 l 188 760 l 188 0 l 91 0 m 193 860 l -83 1008 l -38 1092 l 238 940 l 193 860 z "},"í":{"ha":277,"x_min":41,"x_max":362,"o":"m 90 0 l 90 760 l 187 760 l 187 0 l 90 0 m 87 860 l 41 940 l 318 1092 l 362 1008 l 87 860 z "},"ỉ":{"ha":277,"x_min":-14,"x_max":279,"o":"m 90 0 l 90 760 l 188 760 l 188 0 l 90 0 m 279 1039 q 260 978 279 1008 q 245 959 256 970 l 236 949 l 208 922 q 193 902 200 913 q 178 843 180 884 l 92 843 l 92 861 q 111 928 92 896 q 130 953 117 938 q 147 970 135 959 l 165 988 q 182 1007 174 998 q 193 1040 193 1022 q 175 1085 193 1069 q 134 1103 155 1103 q 83 1075 102 1103 q 75 1052 77 1065 q 73 1010 73 1044 l -14 1010 l -14 1037 q 31 1135 -14 1092 q 135 1173 73 1173 q 237 1135 198 1173 q 279 1039 279 1094 z "},"ĩ":{"ha":277,"x_min":-90,"x_max":389,"o":"m 90 0 l 90 760 l 187 760 l 187 0 l 90 0 m 389 918 q 253 863 316 863 q 195 872 225 863 q 145 892 176 878 l 98 911 q 52 920 73 920 q -41 879 3 920 l -90 948 q 54 1006 -28 1006 q 110 998 81 1006 q 159 978 129 991 q 165 975 161 977 q 171 972 169 974 q 182 968 178 970 l 205 958 q 252 949 231 949 q 297 962 273 949 l 329 979 l 339 985 l 389 918 z "},"ị":{"ha":277,"x_min":85,"x_max":188,"o":"m 91 852 l 91 1028 l 188 1028 l 188 852 l 91 852 m 91 0 l 91 760 l 188 760 l 188 0 l 91 0 m 85 -261 l 85 -85 l 188 -85 l 188 -261 l 85 -261 z "},"ò":{"ha":909,"x_min":58,"x_max":852,"o":"m 852 380 q 735 100 852 217 q 454 -18 618 -18 q 176 98 294 -18 q 58 375 58 215 q 174 659 58 541 q 454 779 290 779 q 734 661 616 779 q 852 380 852 543 m 755 385 q 668 600 755 509 q 456 692 580 692 q 241 597 328 692 q 155 376 155 505 q 243 161 155 252 q 456 69 331 69 q 671 163 585 69 q 755 385 755 254 m 564 860 l 289 1008 l 334 1092 l 610 940 l 564 860 z "},"ó":{"ha":909,"x_min":58,"x_max":852,"o":"m 852 380 q 735 100 852 217 q 454 -18 618 -18 q 176 98 294 -18 q 58 375 58 215 q 174 659 58 541 q 454 779 290 779 q 734 661 616 779 q 852 380 852 543 m 755 385 q 668 600 755 509 q 456 692 580 692 q 241 597 328 692 q 155 376 155 505 q 243 161 155 252 q 456 69 331 69 q 671 163 585 69 q 755 385 755 254 m 390 860 l 345 940 l 621 1092 l 665 1008 l 390 860 z "},"ỏ":{"ha":909,"x_min":58,"x_max":852,"o":"m 852 380 q 735 100 852 217 q 454 -18 618 -18 q 176 98 294 -18 q 58 375 58 215 q 174 659 58 541 q 454 779 290 779 q 734 661 616 779 q 852 380 852 543 m 755 385 q 668 600 755 509 q 456 692 580 692 q 241 597 328 692 q 155 376 155 505 q 243 161 155 252 q 456 69 331 69 q 671 163 585 69 q 755 385 755 254 m 606 1039 q 587 978 606 1008 q 572 959 583 970 l 563 949 l 535 922 q 519 902 527 913 q 505 843 507 884 l 419 843 l 419 861 q 438 928 419 896 q 456 953 444 938 q 474 970 462 959 l 492 988 q 509 1007 501 998 q 519 1040 519 1022 q 502 1085 519 1069 q 460 1103 482 1103 q 410 1075 429 1103 q 401 1052 404 1065 q 400 1010 400 1044 l 313 1010 l 313 1037 q 358 1135 313 1092 q 462 1173 400 1173 q 564 1135 525 1173 q 606 1039 606 1094 z "},"õ":{"ha":909,"x_min":58,"x_max":852,"o":"m 852 380 q 735 100 852 217 q 454 -18 618 -18 q 176 98 294 -18 q 58 375 58 215 q 174 659 58 541 q 454 779 290 779 q 734 661 616 779 q 852 380 852 543 m 755 385 q 668 600 755 509 q 456 692 580 692 q 241 597 328 692 q 155 376 155 505 q 243 161 155 252 q 456 69 331 69 q 671 163 585 69 q 755 385 755 254 m 694 958 q 558 904 621 904 q 500 913 530 904 q 450 932 481 919 l 404 952 q 357 961 378 961 q 264 920 308 961 l 215 989 q 359 1047 278 1047 q 416 1038 387 1047 q 465 1019 435 1032 q 471 1016 467 1018 q 476 1013 474 1015 q 488 1008 483 1010 l 511 999 q 557 990 536 990 q 603 1002 578 990 l 634 1020 l 644 1026 l 694 958 z "},"ọ":{"ha":909,"x_min":58,"x_max":852,"o":"m 852 380 q 735 100 852 217 q 454 -18 618 -18 q 176 98 294 -18 q 58 375 58 215 q 174 659 58 541 q 454 779 290 779 q 734 661 616 779 q 852 380 852 543 m 755 385 q 668 600 755 509 q 456 692 580 692 q 241 597 328 692 q 155 376 155 505 q 243 161 155 252 q 456 69 331 69 q 671 163 585 69 q 755 385 755 254 m 404 -261 l 404 -85 l 507 -85 l 507 -261 l 404 -261 z "},"ô":{"ha":909,"x_min":58,"x_max":852,"o":"m 852 380 q 735 100 852 217 q 454 -18 618 -18 q 176 98 294 -18 q 58 375 58 215 q 174 659 58 541 q 454 779 290 779 q 734 661 616 779 q 852 380 852 543 m 755 385 q 668 600 755 509 q 456 692 580 692 q 241 597 328 692 q 155 376 155 505 q 243 161 155 252 q 456 69 331 69 q 671 163 585 69 q 755 385 755 254 m 578 888 l 458 989 l 336 888 l 210 888 l 411 1061 l 503 1061 l 701 888 l 578 888 z "},"ồ":{"ha":909,"x_min":58,"x_max":852,"o":"m 852 380 q 735 100 852 217 q 454 -18 618 -18 q 176 98 294 -18 q 58 375 58 215 q 174 659 58 541 q 454 779 290 779 q 734 661 616 779 q 852 380 852 543 m 755 385 q 668 600 755 509 q 456 692 580 692 q 241 597 328 692 q 155 376 155 505 q 243 161 155 252 q 456 69 331 69 q 671 163 585 69 q 755 385 755 254 m 631 1044 l 357 1192 l 401 1276 l 677 1124 l 631 1044 m 578 888 l 458 989 l 336 888 l 210 888 l 411 1061 l 503 1061 l 701 888 l 578 888 z "},"ố":{"ha":909,"x_min":58,"x_max":918,"o":"m 852 380 q 735 100 852 217 q 454 -18 618 -18 q 176 98 294 -18 q 58 375 58 215 q 174 659 58 541 q 454 779 290 779 q 734 661 616 779 q 852 380 852 543 m 755 385 q 668 600 755 509 q 456 692 580 692 q 241 597 328 692 q 155 376 155 505 q 243 161 155 252 q 456 69 331 69 q 671 163 585 69 q 755 385 755 254 m 642 983 l 597 1063 l 873 1215 l 918 1131 l 642 983 m 578 888 l 458 989 l 336 888 l 210 888 l 411 1061 l 503 1061 l 701 888 l 578 888 z "},"ổ":{"ha":909,"x_min":58,"x_max":852,"o":"m 852 380 q 735 100 852 217 q 454 -18 618 -18 q 176 98 294 -18 q 58 375 58 215 q 174 659 58 541 q 454 779 290 779 q 734 661 616 779 q 852 380 852 543 m 755 385 q 668 600 755 509 q 456 692 580 692 q 241 597 328 692 q 155 376 155 505 q 243 161 155 252 q 456 69 331 69 q 671 163 585 69 q 755 385 755 254 m 770 1216 q 751 1155 770 1185 q 735 1136 746 1147 l 726 1126 l 699 1099 q 683 1079 690 1090 q 669 1020 671 1061 l 583 1020 l 583 1038 q 602 1105 583 1073 q 620 1130 607 1115 q 637 1147 625 1136 l 656 1165 q 672 1184 665 1175 q 683 1217 683 1199 q 665 1262 683 1246 q 624 1280 646 1280 q 574 1252 593 1280 q 565 1229 567 1242 q 564 1187 564 1221 l 476 1187 l 476 1214 q 522 1312 476 1269 q 625 1350 564 1350 q 728 1312 688 1350 q 770 1216 770 1271 m 578 888 l 458 989 l 336 888 l 210 888 l 411 1061 l 503 1061 l 701 888 l 578 888 z "},"ỗ":{"ha":909,"x_min":58,"x_max":852,"o":"m 852 380 q 735 100 852 217 q 454 -18 618 -18 q 176 98 294 -18 q 58 375 58 215 q 174 659 58 541 q 454 779 290 779 q 734 661 616 779 q 852 380 852 543 m 755 385 q 668 600 755 509 q 456 692 580 692 q 241 597 328 692 q 155 376 155 505 q 243 161 155 252 q 456 69 331 69 q 671 163 585 69 q 755 385 755 254 m 755 1128 q 619 1074 682 1074 q 562 1082 591 1074 q 511 1102 542 1088 l 465 1122 q 418 1131 439 1131 q 325 1089 369 1131 l 276 1158 q 420 1217 339 1217 q 477 1208 448 1217 q 526 1188 496 1202 q 532 1185 528 1187 q 537 1183 535 1184 q 549 1178 544 1180 l 572 1168 q 618 1160 597 1160 q 664 1172 640 1160 l 695 1190 l 705 1196 l 755 1128 m 578 888 l 458 989 l 336 888 l 210 888 l 411 1061 l 503 1061 l 701 888 l 578 888 z "},"ộ":{"ha":909,"x_min":58,"x_max":852,"o":"m 852 380 q 735 100 852 217 q 454 -18 618 -18 q 176 98 294 -18 q 58 375 58 215 q 174 659 58 541 q 454 779 290 779 q 734 661 616 779 q 852 380 852 543 m 755 385 q 668 600 755 509 q 456 692 580 692 q 241 597 328 692 q 155 376 155 505 q 243 161 155 252 q 456 69 331 69 q 671 163 585 69 q 755 385 755 254 m 404 -261 l 404 -85 l 507 -85 l 507 -261 l 404 -261 m 578 888 l 458 989 l 336 888 l 210 888 l 411 1061 l 503 1061 l 701 888 l 578 888 z "},"ù":{"ha":844,"x_min":85,"x_max":751,"o":"m 659 0 l 659 118 l 656 118 q 555 15 625 51 q 413 -18 492 -18 q 152 96 242 -18 q 98 212 115 143 q 85 340 85 267 l 85 760 l 182 760 l 182 342 q 233 146 182 214 q 413 69 290 69 q 574 131 509 69 q 639 235 621 175 q 654 358 654 283 l 654 760 l 751 760 l 751 0 l 659 0 m 502 860 l 227 1008 l 271 1092 l 548 940 l 502 860 z "},"ú":{"ha":844,"x_min":85,"x_max":751,"o":"m 659 0 l 659 118 l 656 118 q 555 15 625 51 q 413 -18 492 -18 q 152 96 242 -18 q 98 212 115 143 q 85 340 85 267 l 85 760 l 182 760 l 182 342 q 233 146 182 214 q 413 69 290 69 q 574 131 509 69 q 639 235 621 175 q 654 358 654 283 l 654 760 l 751 760 l 751 0 l 659 0 m 344 860 l 298 940 l 574 1092 l 618 1008 l 344 860 z "},"ủ":{"ha":844,"x_min":85,"x_max":751,"o":"m 659 0 l 659 118 l 656 118 q 555 15 625 51 q 413 -18 492 -18 q 152 96 242 -18 q 98 212 115 143 q 85 340 85 267 l 85 760 l 182 760 l 182 342 q 233 146 182 214 q 413 69 290 69 q 574 131 509 69 q 639 235 621 175 q 654 358 654 283 l 654 760 l 751 760 l 751 0 l 659 0 m 572 1039 q 553 978 572 1008 q 537 959 548 970 l 528 949 l 500 922 q 485 902 492 913 q 471 843 473 884 l 385 843 l 385 861 q 404 928 385 896 q 422 953 409 938 q 439 970 427 959 l 458 988 q 474 1007 467 998 q 485 1040 485 1022 q 467 1085 485 1069 q 426 1103 448 1103 q 376 1075 395 1103 q 367 1052 369 1065 q 366 1010 366 1044 l 278 1010 l 278 1037 q 323 1135 278 1092 q 427 1173 366 1173 q 530 1135 490 1173 q 572 1039 572 1094 z "},"ũ":{"ha":844,"x_min":85,"x_max":751,"o":"m 659 0 l 659 118 l 656 118 q 555 15 625 51 q 413 -18 492 -18 q 152 96 242 -18 q 98 212 115 143 q 85 340 85 267 l 85 760 l 182 760 l 182 342 q 233 146 182 214 q 413 69 290 69 q 574 131 509 69 q 639 235 621 175 q 654 358 654 283 l 654 760 l 751 760 l 751 0 l 659 0 m 694 958 q 557 904 621 904 q 500 913 530 904 q 450 932 480 919 l 403 952 q 356 961 377 961 q 263 920 307 961 l 214 989 q 359 1047 277 1047 q 415 1038 386 1047 q 464 1019 434 1032 q 470 1016 466 1018 q 475 1013 473 1015 q 487 1008 482 1010 l 510 999 q 556 990 535 990 q 602 1002 578 990 l 633 1020 l 644 1026 l 694 958 z "},"ụ":{"ha":844,"x_min":85,"x_max":751,"o":"m 659 0 l 659 118 l 656 118 q 555 15 625 51 q 413 -18 492 -18 q 152 96 242 -18 q 98 212 115 143 q 85 340 85 267 l 85 760 l 182 760 l 182 342 q 233 146 182 214 q 413 69 290 69 q 574 131 509 69 q 639 235 621 175 q 654 358 654 283 l 654 760 l 751 760 l 751 0 l 659 0 m 404 -261 l 404 -85 l 507 -85 l 507 -261 l 404 -261 z "},"ư":{"ha":844,"x_min":85,"x_max":860,"o":"m 751 647 l 751 0 l 659 0 l 659 118 l 656 118 q 555 15 625 51 q 413 -18 492 -18 q 152 96 242 -18 q 98 212 115 143 q 85 340 85 267 l 85 760 l 182 760 l 182 342 q 233 146 182 214 q 413 69 290 69 q 574 131 509 69 q 639 235 621 175 q 654 358 654 283 l 654 760 l 751 760 l 751 737 q 754 740 752 739 q 782 788 779 760 l 741 788 l 741 910 l 860 910 l 860 784 q 844 729 855 751 q 817 692 833 707 q 788 668 801 677 q 751 646 776 660 l 751 647 z "},"ừ":{"ha":844,"x_min":85,"x_max":860,"o":"m 502 860 l 227 1008 l 271 1092 l 548 940 l 502 860 m 751 647 l 751 0 l 659 0 l 659 118 l 656 118 q 555 15 625 51 q 413 -18 492 -18 q 152 96 242 -18 q 98 212 115 143 q 85 340 85 267 l 85 760 l 182 760 l 182 342 q 233 146 182 214 q 413 69 290 69 q 574 131 509 69 q 639 235 621 175 q 654 358 654 283 l 654 760 l 751 760 l 751 737 q 754 740 752 739 q 782 788 779 760 l 741 788 l 741 910 l 860 910 l 860 784 q 844 729 855 751 q 817 692 833 707 q 788 668 801 677 q 751 646 776 660 l 751 647 z "},"ứ":{"ha":844,"x_min":85,"x_max":860,"o":"m 344 860 l 298 940 l 574 1092 l 618 1008 l 344 860 m 751 647 l 751 0 l 659 0 l 659 118 l 656 118 q 555 15 625 51 q 413 -18 492 -18 q 152 96 242 -18 q 98 212 115 143 q 85 340 85 267 l 85 760 l 182 760 l 182 342 q 233 146 182 214 q 413 69 290 69 q 574 131 509 69 q 639 235 621 175 q 654 358 654 283 l 654 760 l 751 760 l 751 737 q 754 740 752 739 q 782 788 779 760 l 741 788 l 741 910 l 860 910 l 860 784 q 844 729 855 751 q 817 692 833 707 q 788 668 801 677 q 751 646 776 660 l 751 647 z "},"ử":{"ha":844,"x_min":85,"x_max":860,"o":"m 572 1039 q 553 978 572 1008 q 537 959 548 970 l 528 949 l 500 922 q 485 902 492 913 q 471 843 473 884 l 385 843 l 385 861 q 404 928 385 896 q 422 953 409 938 q 439 970 427 959 l 458 988 q 474 1007 467 998 q 485 1040 485 1022 q 467 1085 485 1069 q 426 1103 448 1103 q 376 1075 395 1103 q 367 1052 369 1065 q 366 1010 366 1044 l 278 1010 l 278 1037 q 323 1135 278 1092 q 427 1173 366 1173 q 530 1135 490 1173 q 572 1039 572 1094 m 751 647 l 751 0 l 659 0 l 659 118 l 656 118 q 555 15 625 51 q 413 -18 492 -18 q 152 96 242 -18 q 98 212 115 143 q 85 340 85 267 l 85 760 l 182 760 l 182 342 q 233 146 182 214 q 413 69 290 69 q 574 131 509 69 q 639 235 621 175 q 654 358 654 283 l 654 760 l 751 760 l 751 737 q 754 740 752 739 q 782 788 779 760 l 741 788 l 741 910 l 860 910 l 860 784 q 844 729 855 751 q 817 692 833 707 q 788 668 801 677 q 751 646 776 660 l 751 647 z "},"ữ":{"ha":844,"x_min":85,"x_max":860,"o":"m 694 958 q 557 904 621 904 q 500 913 530 904 q 450 932 480 919 l 403 952 q 356 961 377 961 q 263 920 307 961 l 214 989 q 359 1047 277 1047 q 415 1038 386 1047 q 464 1019 434 1032 q 470 1016 466 1018 q 475 1013 473 1015 q 487 1008 482 1010 l 510 999 q 556 990 535 990 q 602 1002 578 990 l 633 1020 l 644 1026 l 694 958 m 751 647 l 751 0 l 659 0 l 659 118 l 656 118 q 555 15 625 51 q 413 -18 492 -18 q 152 96 242 -18 q 98 212 115 143 q 85 340 85 267 l 85 760 l 182 760 l 182 342 q 233 146 182 214 q 413 69 290 69 q 574 131 509 69 q 639 235 621 175 q 654 358 654 283 l 654 760 l 751 760 l 751 737 q 754 740 752 739 q 782 788 779 760 l 741 788 l 741 910 l 860 910 l 860 784 q 844 729 855 751 q 817 692 833 707 q 788 668 801 677 q 751 646 776 660 l 751 647 z "},"ự":{"ha":844,"x_min":85,"x_max":860,"o":"m 404 -261 l 404 -85 l 507 -85 l 507 -261 l 404 -261 m 751 647 l 751 0 l 659 0 l 659 118 l 656 118 q 555 15 625 51 q 413 -18 492 -18 q 152 96 242 -18 q 98 212 115 143 q 85 340 85 267 l 85 760 l 182 760 l 182 342 q 233 146 182 214 q 413 69 290 69 q 574 131 509 69 q 639 235 621 175 q 654 358 654 283 l 654 760 l 751 760 l 751 737 q 754 740 752 739 q 782 788 779 760 l 741 788 l 741 910 l 860 910 l 860 784 q 844 729 855 751 q 817 692 833 707 q 788 668 801 677 q 751 646 776 660 l 751 647 z "},"ơ":{"ha":909,"x_min":58,"x_max":852,"o":"m 755 385 q 668 600 755 509 q 456 692 580 692 q 241 597 328 692 q 155 376 155 505 q 243 161 155 252 q 456 69 331 69 q 671 163 585 69 q 755 385 755 254 m 743 652 q 852 380 852 537 q 735 100 852 217 q 454 -18 618 -18 q 176 98 294 -18 q 58 375 58 215 q 174 659 58 541 q 454 779 290 779 q 682 707 582 779 q 697 714 691 711 q 734 740 710 720 q 762 788 759 760 l 721 788 l 721 910 l 840 910 l 840 784 q 824 729 836 751 q 797 692 813 707 q 769 669 781 677 q 743 652 759 662 z "},"ờ":{"ha":909,"x_min":58,"x_max":852,"o":"m 755 385 q 668 600 755 509 q 456 692 580 692 q 241 597 328 692 q 155 376 155 505 q 243 161 155 252 q 456 69 331 69 q 671 163 585 69 q 755 385 755 254 m 564 860 l 289 1008 l 334 1092 l 610 940 l 564 860 m 743 652 q 852 380 852 537 q 735 100 852 217 q 454 -18 618 -18 q 176 98 294 -18 q 58 375 58 215 q 174 659 58 541 q 454 779 290 779 q 682 707 582 779 q 697 714 691 711 q 734 740 710 720 q 762 788 759 760 l 721 788 l 721 910 l 840 910 l 840 784 q 824 729 836 751 q 797 692 813 707 q 769 669 781 677 q 743 652 759 662 z "},"ớ":{"ha":909,"x_min":58,"x_max":852,"o":"m 755 385 q 668 600 755 509 q 456 692 580 692 q 241 597 328 692 q 155 376 155 505 q 243 161 155 252 q 456 69 331 69 q 671 163 585 69 q 755 385 755 254 m 390 860 l 345 940 l 621 1092 l 665 1008 l 390 860 m 743 652 q 852 380 852 537 q 735 100 852 217 q 454 -18 618 -18 q 176 98 294 -18 q 58 375 58 215 q 174 659 58 541 q 454 779 290 779 q 682 707 582 779 q 697 714 691 711 q 734 740 710 720 q 762 788 759 760 l 721 788 l 721 910 l 840 910 l 840 784 q 824 729 836 751 q 797 692 813 707 q 769 669 781 677 q 743 652 759 662 z "},"ở":{"ha":909,"x_min":58,"x_max":852,"o":"m 755 385 q 668 600 755 509 q 456 692 580 692 q 241 597 328 692 q 155 376 155 505 q 243 161 155 252 q 456 69 331 69 q 671 163 585 69 q 755 385 755 254 m 606 1039 q 587 978 606 1008 q 572 959 583 970 l 563 949 l 535 922 q 519 902 527 913 q 505 843 507 884 l 419 843 l 419 861 q 438 928 419 896 q 456 953 444 938 q 474 970 462 959 l 492 988 q 509 1007 501 998 q 519 1040 519 1022 q 502 1085 519 1069 q 460 1103 482 1103 q 410 1075 429 1103 q 401 1052 404 1065 q 400 1010 400 1044 l 313 1010 l 313 1037 q 358 1135 313 1092 q 462 1173 400 1173 q 564 1135 525 1173 q 606 1039 606 1094 m 743 652 q 852 380 852 537 q 735 100 852 217 q 454 -18 618 -18 q 176 98 294 -18 q 58 375 58 215 q 174 659 58 541 q 454 779 290 779 q 682 707 582 779 q 697 714 691 711 q 734 740 710 720 q 762 788 759 760 l 721 788 l 721 910 l 840 910 l 840 784 q 824 729 836 751 q 797 692 813 707 q 769 669 781 677 q 743 652 759 662 z "},"ỡ":{"ha":909,"x_min":58,"x_max":852,"o":"m 755 385 q 668 600 755 509 q 456 692 580 692 q 241 597 328 692 q 155 376 155 505 q 243 161 155 252 q 456 69 331 69 q 671 163 585 69 q 755 385 755 254 m 694 958 q 558 904 621 904 q 500 913 530 904 q 450 932 481 919 l 404 952 q 357 961 378 961 q 264 920 308 961 l 215 989 q 359 1047 278 1047 q 416 1038 387 1047 q 465 1019 435 1032 q 471 1016 467 1018 q 476 1013 474 1015 q 488 1008 483 1010 l 511 999 q 557 990 536 990 q 603 1002 578 990 l 634 1020 l 644 1026 l 694 958 m 743 652 q 852 380 852 537 q 735 100 852 217 q 454 -18 618 -18 q 176 98 294 -18 q 58 375 58 215 q 174 659 58 541 q 454 779 290 779 q 682 707 582 779 q 697 714 691 711 q 734 740 710 720 q 762 788 759 760 l 721 788 l 721 910 l 840 910 l 840 784 q 824 729 836 751 q 797 692 813 707 q 769 669 781 677 q 743 652 759 662 z "},"ợ":{"ha":909,"x_min":58,"x_max":852,"o":"m 755 385 q 668 600 755 509 q 456 692 580 692 q 241 597 328 692 q 155 376 155 505 q 243 161 155 252 q 456 69 331 69 q 671 163 585 69 q 755 385 755 254 m 404 -261 l 404 -85 l 507 -85 l 507 -261 l 404 -261 m 743 652 q 852 380 852 537 q 735 100 852 217 q 454 -18 618 -18 q 176 98 294 -18 q 58 375 58 215 q 174 659 58 541 q 454 779 290 779 q 682 707 582 779 q 697 714 691 711 q 734 740 710 720 q 762 788 759 760 l 721 788 l 721 910 l 840 910 l 840 784 q 824 729 836 751 q 797 692 813 707 q 769 669 781 677 q 743 652 759 662 z "},"ỳ":{"ha":744,"x_min":20,"x_max":726,"o":"m 286 -267 l 184 -267 l 316 25 l 20 760 l 123 760 l 365 154 l 623 760 l 726 760 l 286 -267 m 210 1008 l 254 1092 l 531 940 l 485 860 l 210 1008 z "},"ý":{"ha":744,"x_min":20,"x_max":726,"o":"m 286 -267 l 184 -267 l 316 25 l 20 760 l 123 760 l 365 154 l 623 760 l 726 760 l 286 -267 m 294 860 l 248 940 l 524 1092 l 569 1008 l 294 860 z "},"ỷ":{"ha":744,"x_min":20,"x_max":726,"o":"m 286 -267 l 184 -267 l 316 25 l 20 760 l 123 760 l 365 154 l 623 760 l 726 760 l 286 -267 m 545 1039 q 526 978 545 1008 q 510 959 521 970 l 501 949 l 473 922 q 458 902 465 913 q 444 843 446 884 l 357 843 l 357 861 q 376 928 357 896 q 395 953 382 938 q 412 970 400 959 l 431 988 q 447 1007 439 998 q 458 1040 458 1022 q 440 1085 458 1069 q 399 1103 420 1103 q 349 1075 368 1103 q 340 1052 342 1065 q 338 1010 338 1044 l 251 1010 l 251 1037 q 296 1135 251 1092 q 400 1173 338 1173 q 503 1135 463 1173 q 545 1039 545 1094 z "},"ỹ":{"ha":744,"x_min":20,"x_max":726,"o":"m 286 -267 l 184 -267 l 316 25 l 20 760 l 123 760 l 365 154 l 623 760 l 726 760 l 286 -267 m 633 958 q 497 904 559 904 q 439 913 469 904 q 389 932 420 919 l 342 952 q 296 961 317 961 q 202 920 246 961 l 154 989 q 298 1047 216 1047 q 354 1038 326 1047 q 403 1019 373 1032 q 409 1016 405 1018 q 414 1013 412 1015 q 426 1008 421 1010 l 449 999 q 496 990 474 990 q 541 1002 517 990 l 572 1020 l 583 1026 l 633 958 z "},"ỵ":{"ha":744,"x_min":20,"x_max":726,"o":"m 286 -267 l 184 -267 l 316 25 l 20 760 l 123 760 l 365 154 l 623 760 l 726 760 l 286 -267 m 404 -261 l 404 -85 l 507 -85 l 507 -261 l 404 -261 z "},"÷":{"ha":1157,"x_min":0,"x_max":0,"o":""},"Č":{"ha":864,"x_min":0,"x_max":0,"o":""},"č":{"ha":625,"x_min":0,"x_max":0,"o":""},"Đ":{"ha":1033,"x_min":20,"x_max":970,"o":"m 205 482 l 205 93 l 376 93 q 464 96 427 93 q 548 107 510 99 q 706 176 637 126 q 827 327 783 232 q 867 515 867 416 q 692 856 867 735 q 530 922 623 904 q 443 932 491 929 q 353 935 406 935 l 205 935 l 205 575 l 517 575 l 517 482 l 205 482 m 102 575 l 102 1028 l 402 1028 q 576 1008 491 1028 q 736 943 671 985 q 970 511 970 794 q 736 85 970 237 q 575 20 671 43 q 402 0 490 0 l 102 0 l 102 482 l 20 482 l 20 575 l 102 575 z "},"đ":{"ha":951,"x_min":54,"x_max":945,"o":"m 760 0 l 760 134 l 758 134 q 462 -18 656 -18 q 172 96 290 -18 q 54 382 54 211 q 174 666 54 551 q 462 779 292 779 q 758 629 655 779 l 760 629 l 760 1028 l 858 1028 l 858 0 l 760 0 m 766 379 q 679 599 766 507 q 462 692 590 692 q 239 602 327 692 q 151 378 151 513 q 239 157 151 245 q 462 69 328 69 q 679 161 590 69 q 766 379 766 251 m 945 924 l 945 829 l 522 829 l 522 924 l 945 924 z "},"‘":{"ha":544,"x_min":134,"x_max":359,"o":"m 256 758 l 134 1028 l 237 1028 l 359 758 l 256 758 z "},"’":{"ha":496,"x_min":161,"x_max":386,"o":"m 264 758 l 161 758 l 283 1028 l 386 1028 l 264 758 z "},"“":{"ha":697,"x_min":134,"x_max":564,"o":"m 460 758 l 340 1028 l 441 1028 l 564 758 l 460 758 m 256 758 l 134 1028 l 237 1028 l 359 758 l 256 758 z "},"”":{"ha":672,"x_min":133,"x_max":562,"o":"m 440 758 l 337 758 l 459 1028 l 562 1028 l 440 758 m 236 758 l 133 758 l 255 1028 l 357 1028 l 236 758 z "},"…":{"ha":1389,"x_min":180,"x_max":1208,"o":"m 1105 0 l 1105 175 l 1208 175 l 1208 0 l 1105 0 m 643 0 l 643 175 l 746 175 l 746 0 l 643 0 m 180 0 l 180 175 l 283 175 l 283 0 l 180 0 z "}}}
